<svg width="433" height="142" viewBox="0 0 433 142" fill="none" xmlns="http://www.w3.org/2000/svg">
<path fill-rule="evenodd" clip-rule="evenodd" d="M164.268 43.9129V62.2891L163.697 62.3525L163.127 62.4159L162.556 62.4792L161.986 62.5426L161.416 62.6693L160.845 62.7327L160.275 62.7961L159.705 62.8594L159.134 62.9228L158.564 63.0495L157.993 63.1129L157.423 63.1763L156.853 63.2396L156.282 63.3664L155.712 63.4297L155.142 63.4931L154.571 63.5565L154.001 63.6198L153.43 63.7466L152.86 63.8099L152.29 63.8733L151.719 63.9367L151.149 64L150.579 64.1268L150.008 64.1901L148.867 64.3169L148.297 64.3802L147.727 64.507L147.156 64.5703L146.586 64.6337L146.016 64.6971L145.445 64.8238L144.875 64.8871L144.304 64.9505L143.797 65.0139L143.227 65.0773L142.657 65.204L142.086 65.2673L141.516 65.3307L140.946 65.3941L140.375 65.4575L139.805 65.5842L139.234 65.6476L138.664 65.7109L138.094 65.7743L137.523 65.8376L136.953 65.9644L136.383 66.0278L135.812 66.0911L135.242 66.1545L134.671 66.2812L134.101 66.3446L133.531 66.408L132.96 66.4713L132.39 66.5347L131.82 66.6614L131.249 66.7248L130.679 66.7881L130.109 66.8515L129.538 66.9149L128.968 67.0416L128.397 67.105L127.827 67.1683L127.257 67.2317L126.686 67.2951L126.116 67.4218L125.546 67.4852L124.975 67.5485L124.405 67.6119L123.834 67.6753L123.264 67.802L122.694 67.8654L122.123 67.9287L121.553 67.9921L120.983 68.0555L120.412 68.1822L119.842 68.2456L119.271 68.3089L118.701 68.3723L118.131 68.4357L117.56 68.5624L116.99 68.6258L116.42 68.6891L115.849 68.7525L115.279 68.8792L114.708 68.9426L114.138 69.006L113.568 69.0693L112.997 69.1327L112.427 69.2594L111.857 69.3228L111.286 69.3862L110.716 69.4495L110.145 69.5129L109.575 69.6396L109.005 69.703L108.498 69.7664L107.927 69.8297L107.357 69.8931L106.787 70.0198L106.216 70.0832L105.646 70.1466L105.075 70.2099L104.505 70.3367L103.935 70.4L103.364 70.4634L102.794 70.5268L102.224 70.5901L101.653 70.7169L101.083 70.7802L100.512 70.8436L99.9421 70.9069L99.3717 70.9703L98.8014 71.0971L98.231 71.1604L97.6606 71.2238L97.0902 71.2871L96.5199 71.3505L95.9495 71.4773L95.3791 71.5406L94.8087 71.604L94.2384 71.6674L93.668 71.7307L93.0976 71.8574L92.5273 71.9208L91.9569 71.9842L91.3865 72.0476L90.8161 72.1743L90.2458 72.2376L89.6754 72.301L89.105 72.3644L88.5346 72.4278L87.9643 72.5545L87.3939 72.6178L86.8235 72.6812L86.2532 72.7446L85.6828 72.8079L85.1124 72.9347L84.542 72.998L83.9717 73.0614L83.4013 73.1248L82.8309 73.1881L82.2605 73.3149L81.6902 73.3783L81.1198 73.4416L80.5494 73.505L79.979 73.5683L79.4087 73.6951L78.8383 73.7584L78.2679 73.8218L77.6976 73.8852L77.1272 73.9485L76.5568 74.0753L75.9864 74.1386L75.4161 74.202L74.9091 74.2654L74.3387 74.3921L73.7683 74.4555L73.1979 74.5188L72.6276 74.5822L72.0572 74.6456L71.4868 74.7723L70.9165 74.8357L70.3461 74.899L69.7757 74.9624L69.2053 75.0258L68.635 75.1525L68.0646 75.2159L67.4942 75.2792L66.9238 75.3426L66.3535 75.406L65.7831 75.5327L65.2127 75.5961L64.6423 75.6594L64.072 75.7228L63.5016 75.8495L62.9312 75.9129L62.3609 75.9762L61.7905 76.0396L61.2201 76.103L60.6497 76.2297L60.0794 76.2931L59.509 76.3565L58.9386 76.4198L58.3682 76.4832L57.7979 76.6099L57.2275 76.6733L56.6571 76.7367L56.0867 76.8L55.5164 76.8634L54.946 76.9901L54.3756 77.0535L53.8053 77.1168L53.2349 77.1802L52.6645 77.307L52.0941 77.3703L51.5238 77.4337L50.9534 77.4971L50.383 77.5604L49.8126 77.6871L49.2423 77.7505L48.6719 77.8139L48.1015 77.8772L47.5311 77.9406L46.9608 78.0673L46.3904 78.1307L45.82 78.1941L45.2497 78.2575L44.6793 78.3208L44.1089 78.4476L43.5385 78.5109L42.9682 78.5743L42.3978 78.6376L41.8908 78.701L41.3204 78.8277L40.7501 78.8911L40.1797 78.9545L39.6093 79.0178L39.0389 79.1446L38.4686 79.208L37.8982 79.2713L37.3278 79.3347L36.7574 79.398L36.1871 79.5248L35.6167 79.5881L35.0463 79.6515L34.476 79.7149L33.9056 79.7782L33.3352 79.905L32.7648 79.9683L32.1945 80.0317L31.6241 80.0951L31.0537 80.1585L30.4833 80.2852L29.913 80.3485L29.3426 80.4119L28.7722 80.4753L28.2018 80.5386L27.6315 80.6654L27.0611 80.7287L26.4907 80.7921L25.9204 80.8555L25.35 80.9188L24.7796 81.0456L24.2092 81.1089L23.6389 81.1723L23.0685 81.2356L22.4981 81.3624L21.9277 81.4258L21.3574 81.4891L20.787 81.5525L20.2166 81.6159L19.6462 81.7426L19.0759 81.806L18.5055 81.8693V38.4H19.0759L19.6462 38.4634H20.787L21.3574 38.5268H22.4981L23.0685 38.5901H24.2092L24.7796 38.6535H25.9204L26.4907 38.7169H27.6315L28.2018 38.7802H29.3426L29.913 38.8436H30.4833L31.0537 38.907H32.1945L32.7648 38.9703H33.9056L34.476 39.0337H35.6167L36.1871 39.0971H37.3278L37.8982 39.1604H39.0389L39.6093 39.2238H40.7501L41.3204 39.2872H42.3978L42.9682 39.3505H44.1089L44.6793 39.4139H45.82L46.3904 39.4773H47.5311L48.1015 39.5406H49.2423L49.8126 39.604H50.9534L51.5238 39.6674H52.6645L53.2349 39.7307H54.3756L54.946 39.7941H55.5164L56.0867 39.8575H57.2275L57.7979 39.9208H58.9386L59.509 39.9842H60.6497L61.2201 40.0476H62.3609L62.9312 40.1109H64.072L64.6423 40.1743H65.7831L66.3535 40.2377H67.4942L68.0646 40.301H69.2053L69.7757 40.3644H70.9165L71.4868 40.4278H72.6276L73.1979 40.4911H74.3387L74.9091 40.5545H75.4161L75.9864 40.6179H77.6976L78.2679 40.6812H78.8383L79.4087 40.7446H80.5494L81.1198 40.808H82.2605L82.8309 40.8713H83.9717L84.542 40.9347H85.6828L86.2532 40.9981H87.3939L87.9643 41.0614H89.105L89.6754 41.1248H90.8161L91.3865 41.1882H92.5273L93.0976 41.2515H94.2384L94.8087 41.3149H95.9495L96.5199 41.3783H97.6606L98.231 41.4416H98.8014L99.3717 41.505H100.512L101.083 41.5684H102.224L102.794 41.6317H103.935L104.505 41.6951H105.646L106.216 41.7584H107.357L107.927 41.8218H109.005L109.575 41.8852H110.716L111.286 41.9486H112.427L112.997 42.0119H114.138L114.708 42.0753H115.849L116.42 42.1386H117.56L118.131 42.202H119.271L119.842 42.2654H120.983L121.553 42.3288H122.694L123.264 42.3921H123.834L124.405 42.4555H126.116L126.686 42.5188H127.257L127.827 42.5822H128.968L129.538 42.6456H130.679L131.249 42.7089H132.39L132.96 42.7723H134.101L134.671 42.8357H135.812L136.383 42.8991H137.523L138.094 42.9624H139.234L139.805 43.0258H140.946L141.516 43.0891H142.657L143.227 43.1525H144.304L144.875 43.2159H146.016L146.586 43.2793H147.156L147.727 43.3426H148.867L149.438 43.406H150.579L151.149 43.4693H152.29L152.86 43.5327H154.001L154.571 43.5961H155.712L156.282 43.6594H157.423L157.993 43.7228H159.134L159.705 43.7862H160.845L161.416 43.8495H162.556L163.127 43.9129H163.697H164.268Z" fill="#0E426D"/>
<path fill-rule="evenodd" clip-rule="evenodd" d="M152.353 0.506958V36.7525H151.402L150.895 36.6891H149.501L148.994 36.6258H148.044L147.6 36.5624H146.142L145.699 36.499H144.685L144.241 36.4356H143.29L142.783 36.3723H141.389L140.882 36.3089H139.932L139.488 36.2456H138.03L137.587 36.1822H136.636L136.129 36.1188H134.735L134.228 36.0554H133.277L132.834 35.9921H131.376L130.932 35.9287H129.982L129.475 35.8653H128.081L127.574 35.802H126.179L125.672 35.7386H124.722L124.215 35.6753H122.82L122.313 35.6119H121.363L120.919 35.5485H119.462L119.018 35.4851H118.067L117.56 35.4218H116.166L115.659 35.3584H115.215L114.265 35.2951H112.807L112.364 35.2317H111.413L110.906 35.1683H109.955L109.512 35.1049H108.054L107.547 35.0416H106.66L106.153 34.9782H104.695L104.252 34.9149H103.301L102.794 34.8515H101.4L100.893 34.7881H99.9421L99.4985 34.7248H98.0409L97.5972 34.6614H96.6466L96.1396 34.598H94.7454L94.2384 34.5347H92.8441L92.3371 34.4713H91.3865L90.9429 34.4079H89.9922L89.4853 34.3446H88.0276L87.584 34.2812H86.6334L86.1264 34.2178H84.7321L84.2252 34.1544H83.2745L82.8309 34.0911H81.3733L80.9297 34.0277H79.979L79.472 33.9644H78.0778L77.5708 33.901H76.6202L76.1765 33.8376H74.7189L74.2753 33.7743H73.3247L72.8177 33.7109H71.4234L70.9164 33.6475H69.9658L69.5222 33.5842H68.0646L67.5576 33.5208H66.6069L66.1633 33.4574H64.7057L64.2621 33.3941H63.3115L62.8045 33.3307H61.4102L60.9032 33.2673H59.9526L59.509 33.204H58.0513L57.6077 33.1406H56.6571L56.1501 33.0772H54.7559L54.2489 33.0139H53.2982L52.8546 32.9505H51.397L50.89 32.8871H49.9394L49.4957 32.8238H48.0381L47.5945 32.7604H46.6439L46.1369 32.697H44.7426L44.2356 32.6337H43.285L42.8414 32.5703H41.3838L40.9401 32.5069H39.9895L39.4825 32.4436H38.0883L37.5813 32.3802H36.6307L36.187 32.3168H34.7294L34.2858 32.2535H33.3352L32.8282 32.1901H31.3705L30.9269 32.1267H30.4199V16.7921L30.9269 16.7287L31.3705 16.6654L31.8776 16.602L32.3212 16.5386L32.8282 16.4753L33.3352 16.4119L33.7788 16.3485L34.2858 16.2852L34.7294 16.2218L35.2364 16.1584L35.68 16.0951L36.187 16.0317L36.6307 15.9683L37.1377 15.905L37.5813 15.8416L38.0883 15.7782L38.5319 15.7149L39.0389 15.6515L39.4825 15.5881L39.9895 15.5248L40.4332 15.4614L40.9401 15.398L41.3838 15.3347L41.8908 15.2713L42.3344 15.2079L42.8414 15.1446L43.285 15.0812L43.792 15.0178L44.2356 14.9545L44.7426 14.8911L45.1863 14.8277L45.6933 14.7644L46.1369 14.701L46.6439 14.6376L47.0875 14.5743L47.5945 14.5109L48.0381 14.4475L48.5451 14.3842L49.4957 14.2574L49.9394 14.1941L50.4464 14.1307L50.89 14.0673L51.397 14.004L51.904 13.9406L52.3476 13.8772L52.8546 13.8139L53.2982 13.7505L53.8052 13.6871L54.2489 13.6238L54.7559 13.5604L55.1995 13.4971L55.7065 13.4337L56.1501 13.3703L56.6571 13.3069L57.1007 13.2436L57.6077 13.1802L58.0513 13.1168L58.5584 13.0535L59.002 12.9901L59.509 12.9267L59.9526 12.8634L60.4596 12.8L60.9032 12.7366L61.4102 12.6733L61.8538 12.6099L62.3608 12.5466L62.8045 12.4832L63.3115 12.4198L63.7551 12.3564L64.2621 12.2297H64.7057L65.2127 12.103L65.6563 12.0396L66.1633 11.9762L66.6069 11.9129L67.114 11.8495L67.5576 11.7862L68.0646 11.7228L68.5716 11.6594L69.0152 11.5961L69.5222 11.5327L69.9658 11.4693L70.4728 11.406L70.9164 11.3426L71.4234 11.2792L71.8671 11.2159L72.3741 11.1525L72.8177 11.0891L73.3247 11.0257L73.7683 10.9624L74.2753 10.899L74.7189 10.8357L75.2259 10.7723L75.6696 10.7089L76.1765 10.6456L77.1272 10.5188L77.5708 10.4555L78.0778 10.3921L79.0284 10.2654L79.472 10.202L79.979 10.1386L80.4227 10.0753L80.9297 10.0119L81.3733 9.94853L81.8803 9.88516L82.3239 9.82179L82.8309 9.75842L83.2745 9.69507L83.7815 9.6317L84.2252 9.56833L85.1758 9.44159L85.6828 9.37824L86.1264 9.31487L86.6334 9.2515L87.1404 9.18813L87.584 9.12476L88.0276 9.06141L88.5346 8.99804L88.9783 8.93467L89.4853 8.8713L89.9922 8.80793L90.4359 8.74458L90.9429 8.68121L91.3865 8.61784L91.8935 8.55447L92.8441 8.42775L93.2877 8.36438L93.7947 8.30101L94.2384 8.23764L94.7454 8.17427L95.189 8.11091L95.696 8.04754L96.1396 7.98417L96.6466 7.9208L97.0902 7.85743L98.0409 7.73071L98.5478 7.66734L98.9915 7.60397L99.9421 7.47725L100.449 7.41388L100.893 7.35051L101.4 7.28714L101.843 7.22377L102.35 7.16042L102.794 7.09705L103.301 7.03368L103.745 6.97031L104.252 6.90694L104.695 6.84359L105.202 6.78022L105.709 6.71685L106.153 6.65348L106.66 6.59011L107.103 6.52676L107.547 6.46339L108.054 6.40002L108.561 6.33665L109.005 6.27328L109.512 6.20993L109.955 6.14656L110.462 6.08319L110.906 6.01981L111.413 5.95644L111.857 5.89309L112.364 5.82972L112.807 5.70298H113.314L113.758 5.57626L114.265 5.51289L114.708 5.44952L115.215 5.38615L115.659 5.32278L116.166 5.25943L116.61 5.19606L117.117 5.13269L117.56 5.06932L118.067 5.00595L118.511 4.9426L119.018 4.87923L119.462 4.81586L119.969 4.75249L120.412 4.68912L120.919 4.62577L121.363 4.5624L121.87 4.49903L122.313 4.43566L122.82 4.37229L123.264 4.30894L123.771 4.24557L124.215 4.1822L124.722 4.11883L125.229 4.05546L125.672 3.9921L126.179 3.92873L126.623 3.86536L127.13 3.80199L127.574 3.73862L128.524 3.6119L129.031 3.54853L129.475 3.48516L129.982 3.42179L130.425 3.35844L130.932 3.29507L131.376 3.2317L131.883 3.16833L132.327 3.10496L132.834 3.04161L133.277 2.97824L133.784 2.91487L134.228 2.8515L134.735 2.78813L135.178 2.72478L135.685 2.66141L136.129 2.59804L136.636 2.53467L137.08 2.4713L137.587 2.40795L138.03 2.34458L138.537 2.28121L138.981 2.21784L139.488 2.15447L139.932 2.09112L140.439 2.02775L141.389 1.90101L141.833 1.83763L142.34 1.77428L142.783 1.71091L143.29 1.64754L143.797 1.58417L144.241 1.5208L144.685 1.45745L145.192 1.39408L145.699 1.33071L146.142 1.26734L146.649 1.20397L147.093 1.14062L147.6 1.07725L148.044 1.01388L148.551 0.950511L148.994 0.88714L149.501 0.82379L149.945 0.760419L150.895 0.633679L151.402 0.570309L151.846 0.506958H151.909H152.353Z" fill="#1E92A9"/>
<path fill-rule="evenodd" clip-rule="evenodd" d="M182.773 65.5842V120.079H0V90.1069L0.697117 90.0436L1.39424 89.9168L2.15474 89.8535L2.85187 89.7267L3.54898 89.6634L4.24611 89.5366L5.00661 89.4732L5.70373 89.3465L6.40085 89.2832L7.09798 89.1564L7.85847 89.0931L8.5556 88.9663L9.25272 88.903L10.0132 88.7762L10.7103 88.7129L11.4075 88.5861L12.1046 88.5227L12.8651 88.396L13.5622 88.3327L14.2593 88.2059L14.9564 88.1426L15.717 88.0158L16.4141 87.8891L17.8083 87.699L18.5688 87.6356L19.2659 87.5089L19.9631 87.4456L20.7236 87.3188L21.4207 87.2554L22.1178 87.1287L22.8149 87.0653L23.5754 86.9386L24.2726 86.8752L24.9697 86.7485L25.6668 86.6852L26.4273 86.5584L27.1244 86.4951L27.8215 86.3683L28.582 86.3049L29.2792 86.1782L30.6734 85.9881L31.4339 85.9247L32.131 85.798L32.8282 85.7347L33.5253 85.6079L34.2858 85.5446L34.9829 85.4178L35.68 85.3544L36.3771 85.2277L37.1376 85.1643L37.8348 85.0376L38.5319 84.9743L39.2924 84.8475L39.9895 84.7208L40.6866 84.6574L41.3838 84.5307L42.1442 84.4673L42.8414 84.3406L43.5385 84.2772L44.2356 84.1505L44.9961 84.0871L45.6932 83.9604L46.3904 83.897L47.0875 83.7703L47.848 83.7069L48.5451 83.5802L49.2422 83.5168L50.0027 83.3901L50.6998 83.3267L51.397 83.2L52.0941 83.1366L52.8546 83.0099L53.5517 82.9465L54.2488 82.8198L54.946 82.7564L55.7065 82.6297L56.4036 82.5663L57.1007 82.4396L57.8612 82.3762L58.5583 82.2495L59.2554 82.1861L59.9526 82.0594L60.7131 81.996L61.4102 81.8693L62.1073 81.7426L62.8044 81.6792L63.5649 81.5525L64.2621 81.4891L64.9592 81.3624L65.6563 81.299L66.4168 81.1723L67.1139 81.1089L67.811 80.9822L68.5715 80.9188L69.2687 80.7921L69.9658 80.7287L70.6629 80.602L71.4234 80.5386L72.1205 80.4119L72.8177 80.3485L74.2753 80.1584L74.9724 80.0317L75.6695 79.9683L76.3666 79.8416L77.8243 79.6515L78.5214 79.5881L79.2819 79.4614L79.979 79.398L80.6761 79.2713L81.3733 79.2079L82.1337 79.0812L82.8309 79.0178L83.528 78.8911L84.2251 78.8277L84.9856 78.701L85.6827 78.5743L86.3799 78.5109L87.1404 78.4475L87.8375 78.3208L88.5346 78.194L89.2317 78.1307L89.9922 78.004L90.6893 77.9406L91.3865 77.8139L92.0836 77.7505L92.8441 77.6238L93.5412 77.5604L94.2383 77.4336L94.9355 77.3703L95.6959 77.2436L96.3931 77.1802L97.0902 77.0535L97.8507 76.9901L98.5478 76.8634L99.2449 76.8L99.9421 76.6733L100.703 76.6099L101.4 76.4832L102.097 76.4198L102.794 76.2931L103.554 76.2297L104.252 76.103L104.949 76.0396L105.646 75.9129L106.406 75.8495L107.103 75.7228L107.801 75.6594L108.561 75.5327L109.258 75.4059L109.955 75.3426L110.652 75.2158L111.413 75.1525L112.11 75.0257L112.807 74.9624L113.504 74.8356L114.265 74.7723L114.962 74.6455L115.659 74.5822L116.42 74.4554L117.117 74.3921L117.814 74.2653L119.271 74.0752L119.969 74.0119L120.666 73.8851L121.363 73.8218L122.123 73.6951L122.82 73.6317L123.518 73.5049L124.975 73.3149L125.672 73.2515L126.369 73.1247L127.13 73.0614L127.827 72.9346L128.524 72.8713L129.221 72.7446L129.982 72.6812L130.679 72.5544L131.376 72.4911L132.073 72.3644L132.834 72.2376L133.531 72.1742L134.228 72.0475L134.988 71.9842L135.685 71.8574L136.383 71.7941L137.08 71.6673L137.84 71.604L138.537 71.4772L139.234 71.4139L139.932 71.2871L140.692 71.2238L141.389 71.097L142.086 71.0337L142.783 70.9069L143.544 70.8436L144.241 70.7168L144.938 70.6535L145.699 70.5267L146.396 70.4634L147.093 70.3366L147.79 70.2733L148.551 70.1465L149.248 70.0832L149.945 69.9564L150.642 69.8931L151.402 69.7663L152.1 69.703L153.557 69.5129L154.254 69.3861L154.951 69.3228L155.649 69.196L156.409 69.1327L157.106 69.0059L157.803 68.8792L158.5 68.8158L159.261 68.6891L159.958 68.6257L160.655 68.499L161.352 68.4356L162.81 68.2455L163.507 68.1188L164.268 68.0554L164.965 67.9287L165.662 67.8653L166.359 67.7386L167.119 67.6753L167.816 67.5485L168.514 67.4851L169.211 67.3584L169.971 67.2951L170.668 67.1683L171.365 67.1049L172.126 66.9782L172.823 66.9148L173.52 66.7881L174.217 66.7248L174.978 66.598L175.675 66.5346L176.372 66.4079L177.069 66.3446L177.83 66.2178L178.527 66.1544L179.224 66.0277L179.921 65.901L181.379 65.7109L182.076 65.6475L182.393 65.5842H182.773Z" fill="#0E426D"/>
<path fill-rule="evenodd" clip-rule="evenodd" d="M235.121 58.8673L242.599 25.5367L250.077 58.8673H235.121ZM250.774 0.570312H234.74L209.834 90.6139H226.438L231.128 74.7089H254.196L258.759 90.6139H275.364L250.774 0.570312Z" fill="#0E426D"/>
<path fill-rule="evenodd" clip-rule="evenodd" d="M321.944 24.0158H338.231C336.71 5.95643 325.937 0 309.649 0C291.207 0 280.877 8.80792 280.877 25.6634C280.877 44.2931 291.651 49.299 301.854 50.5664C311.424 51.8971 324.099 51.8971 324.099 62.5426C324.099 72.6812 319.599 76.8 309.903 76.8C299.636 76.8 296.594 73.0614 296.214 66.1545H279.927C279.927 80.6654 287.088 91.5644 309.586 91.5644C331.197 91.5644 340.259 82.7565 340.259 61.9089C340.259 43.9129 330.31 39.6673 319.853 38.0832C306.164 35.9287 297.164 36.8792 297.164 25.5367C297.164 16.9822 300.777 14.1941 309.649 14.1941C317.508 14.1941 321.5 16.4119 321.944 24.0158Z" fill="#0E426D"/>
<path fill-rule="evenodd" clip-rule="evenodd" d="M369.855 75.9762V15.2079H383.671C396.219 15.2079 398.057 19.7069 398.057 28.198V63.3664C398.057 71.9208 395.142 75.9762 383.418 75.9762H369.855ZM353.822 0.506958V90.6139H383.418C404.838 90.6139 414.218 82.7565 414.218 64.1901V27.4377C414.218 8.30102 405.218 0.506958 383.418 0.506958H353.822Z" fill="#0E426D"/>
<path fill-rule="evenodd" clip-rule="evenodd" d="M218.073 119.952L213.066 113.172L217.692 106.392H215.728L211.672 112.349H211.038V106.392H209.39V119.952H211.038V114.123H211.672L216.045 119.952H218.073Z" fill="#0E426D"/>
<path fill-rule="evenodd" clip-rule="evenodd" d="M232.522 112.982L233.219 115.834H229.987L230.684 112.982L231.635 108.61L232.522 112.982ZM236.071 119.952L232.459 106.392H230.748L227.135 119.952H228.91L229.607 117.418H233.663L234.36 119.952H236.071Z" fill="#0E426D"/>
<path fill-rule="evenodd" clip-rule="evenodd" d="M248.239 106.329H246.338V119.953H247.986V113.552L247.732 109.814L250.204 117.481H251.028L253.499 109.814L253.246 113.552V119.953H254.957V106.329H253.056L250.647 113.806L248.239 106.329Z" fill="#0E426D"/>
<path fill-rule="evenodd" clip-rule="evenodd" d="M267.949 106.392H266.238V119.952H267.949V106.392Z" fill="#0E426D"/>
<path fill-rule="evenodd" clip-rule="evenodd" d="M279.229 106.329V119.953H286.518V118.368H280.941V113.489H285.63V111.905H280.941V107.85H286.137V106.329H279.229Z" fill="#0E426D"/>
<path fill-rule="evenodd" clip-rule="evenodd" d="M298.812 106.392H297.228V119.952H298.939V114.63L298.812 110.194L303.312 119.952H304.896V106.392H303.185V112.158L303.439 116.784L298.812 106.392Z" fill="#0E426D"/>
<path fill-rule="evenodd" clip-rule="evenodd" d="M317.888 106.392H316.177V119.952H317.888V106.392Z" fill="#0E426D"/>
<path fill-rule="evenodd" clip-rule="evenodd" d="M333.478 112.982L334.175 115.834H330.943L331.64 112.982L332.528 108.61L333.478 112.982ZM337.027 119.952L333.415 106.392H331.704L328.091 119.952H329.866L330.563 117.418H334.619L335.316 119.952H337.027Z" fill="#0E426D"/>
<path fill-rule="evenodd" clip-rule="evenodd" d="M350.906 107.913C352.364 108.04 353.061 108.166 353.061 110.067V111.018C353.061 112.855 352.364 113.299 350.906 113.299H348.942V107.913H350.906ZM354.772 111.018V110.067C354.772 107.343 353.251 106.329 350.906 106.329H347.23V119.953H348.942V114.947H350.463L353.188 119.953H355.152L352.237 114.82C354.075 114.44 354.772 113.172 354.772 111.018Z" fill="#0E426D"/>
<path fill-rule="evenodd" clip-rule="evenodd" d="M373.214 109.751C373.087 107.469 372.01 106.202 369.285 106.202C366.433 106.202 365.292 107.533 365.292 110.067C365.292 112.665 367.13 113.426 368.714 113.552C370.362 113.679 371.82 113.743 371.82 115.96C371.82 117.545 371.44 118.368 369.665 118.368H369.285C367.574 118.368 367.067 117.481 366.94 116.341H365.166C365.292 118.685 366.56 120.016 369.348 120.016H369.665C372.454 120.016 373.594 118.749 373.594 115.834C373.594 112.982 371.947 112.222 370.362 112.095C368.651 111.905 367.003 111.905 367.003 110.067C367.003 108.673 367.384 107.786 369.285 107.786C370.996 107.786 371.376 108.61 371.44 109.751H373.214Z" fill="#0E426D"/>
<path fill-rule="evenodd" clip-rule="evenodd" d="M390.642 107.976V106.455H383.354V107.976H386.143V119.952H387.854V107.976H390.642Z" fill="#0E426D"/>
<path fill-rule="evenodd" clip-rule="evenodd" d="M403.824 117.164L402.81 112.095L401.543 106.329H399.768L403.064 119.953H404.585L405.726 115.39L406.803 110.511L407.88 115.39L409.021 119.953H410.542L413.774 106.329H412.063L410.732 112.095L409.782 117.164L407.437 107.089H406.169L403.824 117.164Z" fill="#0E426D"/>
<path fill-rule="evenodd" clip-rule="evenodd" d="M430.632 115.517C430.632 117.671 430.505 118.495 427.97 118.495C425.435 118.495 425.245 117.671 425.245 115.517V110.764C425.245 108.61 425.435 107.723 427.97 107.723C430.505 107.723 430.632 108.61 430.632 110.764V115.517ZM432.343 110.764C432.343 107.786 431.709 106.202 427.97 106.202C424.231 106.202 423.534 107.786 423.534 110.764V115.517C423.534 118.495 424.231 120.079 427.97 120.079C431.709 120.079 432.343 118.495 432.343 115.517V110.764Z" fill="#0E426D"/>
<path fill-rule="evenodd" clip-rule="evenodd" d="M216.362 136.681C216.362 138.772 216.235 139.659 213.7 139.659C211.165 139.659 210.975 138.772 210.975 136.681V131.865C210.975 129.711 211.165 128.824 213.7 128.824C216.235 128.824 216.362 129.711 216.362 131.865V136.681ZM218.073 131.865C218.073 128.887 217.376 127.303 213.7 127.303C209.961 127.303 209.264 128.887 209.264 131.865V136.618C209.264 139.596 209.961 141.18 213.7 141.18C217.376 141.18 218.073 139.596 218.073 136.618V131.865Z" fill="#0E426D"/>
<path fill-rule="evenodd" clip-rule="evenodd" d="M236.832 130.852C236.705 128.634 235.628 127.366 232.903 127.366C230.051 127.366 228.91 128.697 228.91 131.168C228.91 133.766 230.748 134.527 232.332 134.654C234.043 134.844 235.501 134.844 235.501 137.061C235.501 138.646 235.121 139.533 233.283 139.533H232.966C231.191 139.533 230.684 138.646 230.621 137.505H228.783C228.91 139.786 230.177 141.18 232.966 141.18H233.283C236.071 141.18 237.212 139.913 237.212 136.998C237.212 134.147 235.564 133.386 234.043 133.196C232.332 133.069 230.684 133.069 230.684 131.168C230.684 129.838 231.065 128.951 232.903 128.951C234.614 128.951 234.994 129.774 235.121 130.852H236.832Z" fill="#0E426D"/>
<path fill-rule="evenodd" clip-rule="evenodd" d="M255.02 136.681C255.02 138.772 254.83 139.659 252.295 139.659C249.76 139.659 249.57 138.772 249.57 136.681V131.865C249.57 129.711 249.76 128.824 252.295 128.824C254.83 128.824 255.02 129.711 255.02 131.865V136.681ZM256.668 131.865C256.668 128.887 256.034 127.303 252.295 127.303C248.556 127.303 247.859 128.887 247.859 131.865V136.618C247.859 139.596 248.556 141.18 252.295 141.18C256.034 141.18 256.668 139.596 256.668 136.618V131.865Z" fill="#0E426D"/>
<path fill-rule="evenodd" clip-rule="evenodd" d="M271.118 129.014C272.195 129.014 273.082 129.648 273.082 130.978C273.082 131.992 272.512 133.069 270.927 133.069H269.343V129.014H271.118ZM269.406 139.533V134.653H271.815C273.399 134.653 274.35 135.224 274.35 136.998C274.35 138.519 273.779 139.533 271.751 139.533H269.406ZM267.695 141.117H271.688C274.476 141.117 276.061 139.85 276.061 136.935C276.061 135.224 275.3 134.02 273.779 133.513C274.476 132.879 274.793 132.119 274.793 130.978C274.793 128.887 273.526 127.43 271.118 127.43H267.695V141.117Z" fill="#0E426D"/>
<path fill-rule="evenodd" clip-rule="evenodd" d="M293.742 136.681C293.742 138.772 293.552 139.659 291.017 139.659C288.482 139.659 288.292 138.772 288.292 136.681V131.865C288.292 129.711 288.482 128.824 291.017 128.824C293.552 128.824 293.742 129.711 293.742 131.865V136.681ZM295.39 131.865C295.39 128.887 294.756 127.303 291.017 127.303C287.278 127.303 286.581 128.887 286.581 131.865V136.618C286.581 139.596 287.278 141.18 291.017 141.18C294.756 141.18 295.39 139.596 295.39 136.618V131.865Z" fill="#0E426D"/>
<path fill-rule="evenodd" clip-rule="evenodd" d="M309.142 138.329L308.192 133.259L306.861 127.493H305.15L308.382 141.117H309.903L311.044 136.554L312.121 131.675L313.198 136.554L314.339 141.117H315.923L319.156 127.493H317.381L316.113 133.259L315.1 138.329L312.818 128.253H311.487L309.142 138.329Z" fill="#0E426D"/>
<path fill-rule="evenodd" clip-rule="evenodd" d="M331.133 127.556H329.422V141.117H331.133V127.556Z" fill="#0E426D"/>
<path fill-rule="evenodd" clip-rule="evenodd" d="M350.843 131.358C350.78 128.697 350.146 127.366 346.597 127.366C342.984 127.366 342.287 129.014 342.287 131.992V136.554C342.287 139.533 342.604 141.18 346.597 141.18C350.589 141.18 350.843 139.533 350.843 136.935H349.259C349.259 139.089 348.878 139.596 346.597 139.596C344.315 139.596 343.935 138.772 343.935 136.618V131.929C343.935 129.774 344.252 128.951 346.597 128.951C348.878 128.951 349.195 129.711 349.195 131.358H350.843Z" fill="#0E426D"/>
<path fill-rule="evenodd" clip-rule="evenodd" d="M361.68 127.493V141.117H368.968V139.533H363.391V134.654H368.081V133.069H363.391V128.951H368.525V127.493H361.68Z" fill="#0E426D"/>
</svg>

