<svg width="64" height="54" viewBox="0 0 64 54" fill="none" xmlns="http://www.w3.org/2000/svg">
<path d="M9 29.2663V42.2429C9 42.6488 9.21556 43.0128 9.57482 43.2227L28.5439 53.8476C29.3055 54.2815 30.2684 53.7356 30.2684 52.8677V39.7371C30.2684 39.3312 30.0528 38.9672 29.6935 38.7572L10.7245 28.2724C9.94845 27.8664 9 28.4124 9 29.2663ZM35.4417 53.8476L54.4252 43.2227C54.7844 43.0268 55 42.6488 55 42.2429V29.1263C55 28.2584 54.0515 27.7264 53.2755 28.1464L34.3065 38.7712C33.9472 38.9672 33.7316 39.3452 33.7316 39.7511V52.8817C33.7173 53.7356 34.6801 54.2815 35.4417 53.8476Z" fill="#0E426D"/>
<path d="M30.8608 0.295036L0.578507 17.6881C-0.192836 18.1236 -0.192836 19.2054 0.578507 19.641L30.8608 36.1911C31.5608 36.5845 32.4321 36.5845 33.132 36.1911L60.0004 21.0599C60.7575 20.6244 61.0003 21.1723 61.0003 22.0434V43.5951C61.0003 44.5504 61.5574 45 62.5716 45C63.2001 45 64 44.5504 64 43.5951V19.4583C64 19.0509 63.7857 18.6856 63.4286 18.4749L33.132 0.295036C32.4321 -0.0983453 31.5608 -0.0983453 30.8608 0.295036Z" fill="#0E426D"/>
</svg>
