<svg width="59" height="59" viewBox="0 0 59 59" fill="none" xmlns="http://www.w3.org/2000/svg">
<path d="M17.4047 23.8953L13.275 28.025L26.55 41.3L56.05 11.8L51.9203 7.67028L26.55 32.8922L17.4047 23.8953ZM53.1 29.5C53.1 42.4797 42.4796 53.1 29.5 53.1C16.5204 53.1 5.9 42.4797 5.9 29.5C5.9 16.5203 16.5203 5.9 29.5 5.9C31.7125 5.9 33.925 6.19528 35.9906 6.78514L40.5625 2.2125C37.1703 0.7375 33.4828 0 29.5 0C13.275 0 0 13.275 0 29.5C0 45.725 13.275 59 29.5 59C45.725 59 59 45.725 59 29.5H53.1Z" fill="#0E426D"/>
</svg>
