<svg width="1565" height="1719" viewBox="0 0 1565 1719" fill="none" xmlns="http://www.w3.org/2000/svg">
<rect y="4" width="1565" height="1715" fill="#EEEEEE"/>
<path d="M0 0V100.912L81.2116 50.2917L0 0Z" fill="#1E89B3" fill-opacity="0.1"/>
<path d="M0 101V201.912L81.2116 151.292L0 101Z" fill="#1E89B3" fill-opacity="0.2"/>
<path d="M0 202V302.912L81.2116 252.292L0 202Z" fill="#1E89B3" fill-opacity="0.3"/>
<path d="M0 303V403.912L81.2116 353.292L0 303Z" fill="#1E89B3" fill-opacity="0.4"/>
<path d="M0 404V504.912L81.2116 454.292L0 404Z" fill="#1E89B3" fill-opacity="0.5"/>
<path d="M0 505V605.912L81.2116 555.292L0 505Z" fill="#1E89B3" fill-opacity="0.6"/>
<path d="M0 605V705.912L81.2116 655.292L0 605Z" fill="#1E89B3" fill-opacity="0.7"/>
<path d="M0 706V806.912L81.2116 756.292L0 706Z" fill="#1E89B3" fill-opacity="0.8"/>
<path d="M0 807V907.912L81.2116 857.292L0 807Z" fill="#1E89B3" fill-opacity="0.9"/>
<path d="M1564.21 912V1012.91L1483 962.292L1564.21 912Z" fill="#1E89B3" fill-opacity="0.1"/>
<path d="M1564.21 1013V1113.91L1483 1063.29L1564.21 1013Z" fill="#1E89B3" fill-opacity="0.2"/>
<path d="M1564.21 1114V1214.91L1483 1164.29L1564.21 1114Z" fill="#1E89B3" fill-opacity="0.3"/>
<path d="M1564.21 1215V1315.91L1483 1265.29L1564.21 1215Z" fill="#1E89B3" fill-opacity="0.4"/>
<path d="M1564.21 1316V1416.91L1483 1366.29L1564.21 1316Z" fill="#1E89B3" fill-opacity="0.5"/>
<path d="M1564.21 1417V1517.91L1483 1467.29L1564.21 1417Z" fill="#1E89B3" fill-opacity="0.6"/>
<path d="M1564.21 1517V1617.91L1483 1567.29L1564.21 1517Z" fill="#1E89B3" fill-opacity="0.7"/>
<path d="M1564.21 1618V1718.91L1483 1668.29L1564.21 1618Z" fill="#1E89B3" fill-opacity="0.8"/>
<path d="M1565 908V807.088L1483.79 857.708L1565 908Z" fill="#1E89B3" fill-opacity="0.1"/>
<path d="M1565 807V706.088L1483.79 756.708L1565 807Z" fill="#1E89B3" fill-opacity="0.2"/>
<path d="M1565 706V605.088L1483.79 655.708L1565 706Z" fill="#1E89B3" fill-opacity="0.3"/>
<path d="M1565 605V504.088L1483.79 554.708L1565 605Z" fill="#1E89B3" fill-opacity="0.4"/>
<path d="M1565 505V404.088L1483.79 454.708L1565 505Z" fill="#1E89B3" fill-opacity="0.5"/>
<path d="M1565 404V303.088L1483.79 353.708L1565 404Z" fill="#1E89B3" fill-opacity="0.6"/>
<path d="M1565 303V202.088L1483.79 252.708L1565 303Z" fill="#1E89B3" fill-opacity="0.7"/>
<path d="M1565 202V101.088L1483.79 151.708L1565 202Z" fill="#1E89B3" fill-opacity="0.8"/>
<path d="M1565 101V0.0879596L1483.79 50.7083L1565 101Z" fill="#1E89B3" fill-opacity="0.9"/>
<path d="M0 1718.91V1618L81.2116 1668.62L0 1718.91Z" fill="#1E89B3" fill-opacity="0.1"/>
<path d="M0 1617.91V1517L81.2116 1567.62L0 1617.91Z" fill="#1E89B3" fill-opacity="0.2"/>
<path d="M0 1516.91V1416L81.2116 1466.62L0 1516.91Z" fill="#1E89B3" fill-opacity="0.3"/>
<path d="M0 1415.91V1315L81.2116 1365.62L0 1415.91Z" fill="#1E89B3" fill-opacity="0.4"/>
<path d="M0 1315.91V1215L81.2116 1265.62L0 1315.91Z" fill="#1E89B3" fill-opacity="0.5"/>
<path d="M0 1214.91V1114L81.2116 1164.62L0 1214.91Z" fill="#1E89B3" fill-opacity="0.6"/>
<path d="M0 1113.91V1013L81.2116 1063.62L0 1113.91Z" fill="#1E89B3" fill-opacity="0.7"/>
<path d="M0 1012.91V912L81.2116 962.62L0 1012.91Z" fill="#1E89B3" fill-opacity="0.8"/>
</svg>
