<svg width="82" height="53" viewBox="0 0 82 53" fill="none" xmlns="http://www.w3.org/2000/svg">
<path d="M57.7894 40.7762C55.7772 40.0497 52.4894 40.0134 51.0341 39.4503C50.028 39.0507 48.429 38.6148 47.908 37.9791C47.387 37.3434 47.387 32.8026 47.387 32.8026C47.387 32.8026 48.6446 31.6038 49.1656 30.2598C49.6866 28.9339 50.028 25.2649 50.028 25.2649C50.028 25.2649 51.2138 25.7735 51.6809 23.3759C52.0762 21.3053 52.8307 20.2156 52.6331 18.6899C52.4175 17.1642 51.5911 17.5274 51.5911 17.5274C51.5911 17.5274 52.6331 15.9836 52.6331 10.7344C52.6331 5.3218 48.5907 0 41.0269 0C33.4811 0 29.4028 5.33996 29.4028 10.7344C29.4028 15.9836 30.4269 17.5274 30.4269 17.5274C30.4269 17.5274 29.5825 17.1642 29.3848 18.6899C29.1692 20.2156 29.9238 21.3053 30.337 23.3759C30.8042 25.7916 31.9899 25.2649 31.9899 25.2649C31.9899 25.2649 32.3313 28.9157 32.8523 30.2598C33.3733 31.6038 34.631 32.8026 34.631 32.8026C34.631 32.8026 34.631 37.3434 34.1099 37.9791C33.5889 38.6148 31.9899 39.0507 30.9838 39.4321C29.5465 39.9952 26.2587 40.0679 24.2285 40.7944C22.2163 41.5209 16 44.8266 16 53H66C66.0179 44.8084 59.8016 41.5027 57.7894 40.7762Z" fill="#0E426D"/>
<path d="M19.8151 32.0421C19.8151 32.0421 24.18 31.8965 25.9149 30.3495C23.0842 26.0723 24.6183 21.0853 24.0339 16.4259C23.4494 11.7847 20.8013 9 15.5051 9H15.4321C10.3185 9 7.5608 11.7665 6.97639 16.4259C6.39198 21.0671 8.01737 26.6183 5.11359 30.3495C6.84855 31.9147 11.2316 31.8601 11.2316 31.8601C11.2316 31.8601 11.4143 34.481 11.049 34.9178C10.6837 35.3547 9.60624 35.7733 8.85746 35.9189C7.25033 36.2647 5.55189 36.7379 4.12739 37.2293C2.7029 37.7207 0 40.3599 0 44H14.665C15.0668 42.5439 17.8245 39.9412 20.5091 38.5762C22.1528 37.7389 23.7782 37.7936 25.02 37.6297C25.02 37.6297 25.714 36.5377 23.4312 36.1191C23.4312 36.1191 20.29 35.3365 19.9247 34.8996C19.5777 34.4992 19.8151 32.0421 19.8151 32.0421ZM62.1849 32.0421C62.1849 32.0421 57.82 31.8965 56.0851 30.3495C58.9158 26.0723 57.3817 21.0853 57.9661 16.4259C58.5506 11.7847 61.1987 9 66.4949 9H66.5679C71.6815 9 74.4392 11.7665 75.0236 16.4259C75.608 21.0671 73.9826 26.6183 76.8864 30.3495C75.1515 31.9147 70.7684 31.8601 70.7684 31.8601C70.7684 31.8601 70.5857 34.481 70.951 34.9178C71.3163 35.3547 72.3938 35.7733 73.1425 35.9189C74.7497 36.2647 76.4481 36.7379 77.8726 37.2293C79.2971 37.7207 82 40.3599 82 44H67.335C66.9332 42.5439 64.1755 39.9412 61.4909 38.5762C59.8472 37.7389 58.2218 37.7936 56.98 37.6297C56.98 37.6297 56.286 36.5377 58.5688 36.1191C58.5688 36.1191 61.71 35.3365 62.0753 34.8996C62.4223 34.4992 62.1849 32.0421 62.1849 32.0421Z" fill="#0E426D"/>
</svg>
