<svg width="1251" height="453" viewBox="0 0 1251 453" fill="none" xmlns="http://www.w3.org/2000/svg">
<g clip-path="url(#clip0)">
<path d="M0 453H1254V0H0V453Z" fill="#0D426C"/>
<path d="M1297.31 -90.9268L1218.84 -41.7684L1297.31 7.06862V-90.9268Z" fill="#9DDAE9" fill-opacity="0.600006"/>
<path d="M1131.37 -91.248L1052.58 -41.7684L1131.37 7.06862V-91.248Z" fill="#9DDAE9" fill-opacity="0.600006"/>
<path d="M1134.26 -91.248V7.06862L1213.05 -41.7684L1186.04 -58.7971L1134.26 -91.248Z" fill="#9DDAE9" fill-opacity="0.501968"/>
<path d="M1134.26 14.5308V113.169L1213.05 64.0104L1186.04 46.9817L1134.26 14.5308Z" fill="#74CEE0" fill-opacity="0.501968"/>
<path d="M1297.31 14.5303L1218.52 64.0099L1232.35 72.6849L1297.31 113.168V14.5303Z" fill="#9DDAE9" fill-opacity="0.701965"/>
<path d="M1217.23 -37.1982V61.4397L1231.7 52.1221L1296.02 11.9601L1217.23 -37.1982Z" fill="#9DDAE9" fill-opacity="0.501968"/>
<path d="M1217.23 66.5806V165.219L1296.02 116.06L1278.01 104.815L1217.23 66.5806Z" fill="#1E89B3" fill-opacity="0.501968"/>
<path d="M1214.34 -37.1982L1135.55 11.9601L1214.34 61.4397V-37.1982Z" fill="#9DDAE9" fill-opacity="0.701965"/>
<path d="M1131.37 14.5308L1065.76 55.6567L1052.58 64.0104L1131.37 113.169V14.5308Z" fill="#74CEE0" fill-opacity="0.701965"/>
<path d="M1051.29 -37.1982V61.4397L1065.76 52.1221L1130.08 11.9601L1051.29 -37.1982Z" fill="#74CEE0" fill-opacity="0.800003"/>
<path d="M1051.29 66.5806V165.219L1130.08 116.06L1051.29 66.5806Z" fill="#1E89B3" fill-opacity="0.399994"/>
<path d="M965.425 -91.248L886.634 -41.7684L965.425 7.06862V-91.248Z" fill="#2191BE" fill-opacity="0.501968"/>
<path d="M1048.4 -37.198L969.284 11.9603L1048.4 61.44V-37.198Z" fill="#2191BE" fill-opacity="0.399994"/>
<path d="M965.103 14.5308L913.326 46.9817L886.312 64.0104L965.103 113.169V14.5308Z" fill="#1E89B3" fill-opacity="0.501968"/>
<path d="M885.026 -37.1982V61.4397L963.817 11.9601L885.026 -37.1982Z" fill="#1E89B3" fill-opacity="0.301956"/>
<path d="M1214.02 278.636L1135.55 327.795L1214.02 376.953V278.636Z" fill="#C1E6F0" fill-opacity="0.301956"/>
<path d="M1217.23 278.636V376.953L1295.7 327.795L1217.23 278.636Z" fill="#C1E6F0" fill-opacity="0.800003"/>
<path d="M1216.91 382.415V481.053L1295.7 431.894L1256.47 407.155L1216.91 382.415Z" fill="#C1E6F0" fill-opacity="0.399994"/>
<path d="M1297.31 434.465L1218.52 483.623L1297.31 533.103V434.465Z" fill="#74CEE0" fill-opacity="0.501968"/>
<path d="M1296.99 330.365L1218.2 379.845L1252.61 401.371L1296.99 429.003V330.365Z" fill="#C1E6F0" fill-opacity="0.301956"/>
<path d="M1214.02 382.415L1135.23 431.894L1214.02 481.053V382.415Z" fill="#C1E6F0" fill-opacity="0.501968"/>
<path d="M1133.94 330.365V429.003L1212.73 379.845L1133.94 330.365Z" fill="#C1E6F0" fill-opacity="0.800003"/>
<path d="M966.389 118.309V216.947L1045.18 167.468L966.389 118.309Z" fill="#9DDAE9" fill-opacity="0.800003"/>
<path d="M963.495 118.309L884.705 167.468L963.495 216.947V118.309Z" fill="#9DDAE9" fill-opacity="0.399994"/>
<path d="M799.482 -91.248L720.692 -42.0897L799.482 7.06862V-91.248Z" fill="#2191BE" fill-opacity="0.501968"/>
<path d="M882.132 -37.198L803.341 11.9603L882.132 61.1187V-37.198Z" fill="#2191BE" fill-opacity="0.399994"/>
<path d="M799.161 14.5308L720.37 63.6891L799.161 113.169V14.5308Z" fill="#1E89B3" fill-opacity="0.501968"/>
<path d="M719.084 -37.1982V61.1184L797.874 11.9601L719.084 -37.1982Z" fill="#1E89B3" fill-opacity="0.301956"/>
<path d="M1297.31 118.63L1218.52 167.789L1297.31 217.268V118.63Z" fill="#1E89B3" fill-opacity="0.301956"/>
<path d="M1214.34 170.681L1135.55 219.839L1214.34 269.319V170.681Z" fill="#1E89B3" fill-opacity="0.399994"/>
<path d="M1134.26 118.63V217.268L1213.05 167.789L1134.26 118.63Z" fill="#1E89B3" fill-opacity="0.701965"/>
<path d="M37.6265 318.477L-40.1992 368.278L38.2697 416.794L37.6265 318.477Z" fill="#C1E6F0" fill-opacity="0.800003"/>
<path d="M-43.7367 162.969L-42.7719 261.607L35.0538 211.485L-43.7367 162.969Z" fill="#74CEE0" fill-opacity="0.501968"/>
<path d="M-42.4503 266.748L-41.4855 365.386L36.3402 315.585L-42.4503 266.748Z" fill="#C1E6F0" fill-opacity="0.301956"/>
<path d="M35.697 109.956L-42.1287 160.078L36.6618 208.915L36.3402 175.5L35.697 109.956Z" fill="#9DDAE9" fill-opacity="0.800003"/>
</g>
<defs>
<clipPath id="clip0">
<rect width="1251" height="453" fill="white"/>
</clipPath>
</defs>
</svg>
