<svg width="37" height="37" viewBox="0 0 37 37" fill="none" xmlns="http://www.w3.org/2000/svg">
<path d="M34.0532 0H1.98988C0.891691 0 0 0.891691 0 1.98988V34.0532C0 35.1514 0.891691 36.0431 1.98988 36.0431H18.0216V21.776H13.7133V16.5198H18.0216V12.6339C18.0216 7.97829 21.2504 5.44401 25.4085 5.44401C27.3984 5.44401 29.5384 5.59419 30.0359 5.65989V10.522H26.7226C24.4605 10.522 24.0287 11.592 24.0287 13.1689V16.5198H29.4164L28.7125 21.776H24.0287V36.0431H34.0532C35.1514 36.0431 36.0431 35.1514 36.0431 34.0532V1.98988C36.0431 0.891691 35.1514 0 34.0532 0Z" fill="#FDFDFD"/>
</svg>
