<svg width="57" height="37" viewBox="0 0 57 37" fill="none" xmlns="http://www.w3.org/2000/svg">
<path d="M35.0582 15.2451L34.8819 14.4713H17.6283V21.5577H27.6213C26.5856 26.5325 22.2887 28.5888 18.3554 28.5888C15.4908 28.5888 12.8246 27.7265 10.8304 25.7918C8.78108 23.7908 7.64626 21.027 7.64626 18.0089C7.64626 15.013 8.72599 12.2823 10.6871 10.3145C12.6373 8.35774 15.3146 7.50649 18.2563 7.50649C21.6167 7.50649 23.7541 9.03211 24.6575 9.83914L29.946 4.5658C28.4586 3.27234 24.4041 0 18.08 0C13.1992 0 8.52767 1.85728 5.1122 5.28439C1.75181 8.65623 0 13.5095 0 18.02C0 22.5305 1.65265 27.1516 4.91388 30.5456C8.40648 34.1606 13.3534 36.04 18.4546 36.04C23.093 36.04 27.4781 34.2159 30.6071 30.9214C33.692 27.6712 35.2786 23.1717 35.2786 18.4622C35.2675 16.4723 35.0692 15.2894 35.0582 15.2451ZM56.4104 14.4823H50.1304V8.18086H45.6131V14.4823H39.3331V19.015H45.6131V25.3164H50.1304V19.015H56.4104V14.4823Z" fill="#FDFDFD"/>
</svg>
