<svg width="172" height="56" viewBox="0 0 172 56" fill="none" xmlns="http://www.w3.org/2000/svg">
<path fill-rule="evenodd" clip-rule="evenodd" d="M65.1576 17.4182V24.6821L64.9314 24.7072L64.7052 24.7575L64.4789 24.7826L64.2527 24.8077L64.0264 24.8329L63.8002 24.858L63.5739 24.9083L63.3477 24.9334L63.1215 24.9586L62.8952 24.9837L62.669 25.0088L62.4427 25.0591L62.2165 25.0842L61.9903 25.1094L61.764 25.1345L61.5378 25.1847L61.3115 25.2099L61.0853 25.235L60.8591 25.2602L60.6328 25.2853L60.4066 25.3356L60.1803 25.3607L59.9541 25.3858L59.7278 25.411L59.5016 25.4361L59.0491 25.5115L58.8229 25.5366L58.5966 25.5618L58.3704 25.6121L58.1441 25.6372L57.9179 25.6623L57.6917 25.6874L57.4654 25.7126L57.2392 25.7629L57.0381 25.788L56.8118 25.8131L56.5856 25.8383L56.3593 25.8634L56.1331 25.8885L55.9069 25.9388L55.6806 25.9639L55.4544 25.9891L55.2281 26.0142L55.0019 26.0645L54.7757 26.0896L54.5494 26.1147L54.3232 26.1399L54.0969 26.165L53.8707 26.2153L53.6445 26.2404L53.4182 26.2655L53.192 26.2907L52.9657 26.3158L52.7395 26.3661L52.5132 26.3912L52.287 26.4164L52.0608 26.4415L51.8345 26.4666L51.6083 26.5169L51.382 26.542L51.1558 26.5672L50.9295 26.5923L50.7033 26.6174L50.4771 26.6677L50.2508 26.6928L50.0246 26.718L49.7983 26.7431L49.5721 26.7934L49.3459 26.8185L49.1196 26.8437L48.8934 26.8688L48.6671 26.8939L48.4409 26.9442L48.2146 26.9693L47.9884 26.9945L47.7622 27.0196L47.5359 27.0447L47.3097 27.095L47.0834 27.1201L46.8572 27.1453L46.631 27.1704L46.4047 27.1955L46.1785 27.2458L45.9522 27.2709L45.726 27.2961L45.4997 27.3212L45.2735 27.3715L45.0473 27.3966L44.821 27.4217L44.5948 27.4469L44.3685 27.472L44.1423 27.5223L43.9161 27.5474L43.6898 27.5725L43.4636 27.5977L43.2373 27.6228L43.0362 27.6731L42.81 27.6982L42.5837 27.7234L42.3575 27.7485L42.1313 27.7736L41.905 27.8239L41.6788 27.849L41.4525 27.8742L41.2263 27.8993L41 27.9496L40.7738 27.9747L40.5476 27.9998L40.3213 28.025L40.0951 28.0501L39.8688 28.1004L39.6426 28.1255L39.4164 28.1506L39.1901 28.1758L38.9639 28.2009L38.7376 28.2512L38.5114 28.2763L38.2851 28.3014L38.0589 28.3266L37.8327 28.3517L37.6064 28.402L37.3802 28.4271L37.1539 28.4522L36.9277 28.4774L36.7015 28.5025L36.4752 28.5528L36.249 28.5779L36.0227 28.6031L35.7965 28.6282L35.5702 28.6533L35.344 28.7036L35.1178 28.7288L34.8915 28.7539L34.6653 28.779L34.439 28.8293L34.2128 28.8544L33.9866 28.8796L33.7603 28.9047L33.5341 28.9298L33.3078 28.9801L33.0816 29.0052L32.8553 29.0304L32.6291 29.0555L32.4029 29.0806L32.1766 29.1309L31.9504 29.156L31.7241 29.1812L31.4979 29.2063L31.2717 29.2314L31.0454 29.2817L30.8192 29.3068L30.5929 29.332L30.3667 29.3571L30.1404 29.3822L29.9142 29.4325L29.7131 29.4576L29.4869 29.4828L29.2606 29.5079L29.0344 29.5582L28.8081 29.5833L28.5819 29.6085L28.3556 29.6336L28.1294 29.6587L27.9032 29.709L27.6769 29.7341L27.4507 29.7593L27.2244 29.7844L26.9982 29.8095L26.772 29.8598L26.5457 29.8849L26.3195 29.9101L26.0932 29.9352L25.867 29.9603L25.6407 30.0106L25.4145 30.0357L25.1883 30.0609L24.962 30.086L24.7358 30.1363L24.5095 30.1614L24.2833 30.1865L24.0571 30.2117L23.8308 30.2368L23.6046 30.2871L23.3783 30.3122L23.1521 30.3373L22.9258 30.3625L22.6996 30.3876L22.4734 30.4379L22.2471 30.463L22.0209 30.4882L21.7946 30.5133L21.5684 30.5384L21.3422 30.5887L21.1159 30.6139L20.8897 30.639L20.6634 30.6641L20.4372 30.6892L20.2109 30.7395L19.9847 30.7647L19.7585 30.7898L19.5322 30.8149L19.306 30.84L19.0797 30.8903L18.8535 30.9155L18.6272 30.9406L18.401 30.9657L18.1748 30.9909L17.9485 31.0411L17.7223 31.0663L17.496 31.0914L17.2698 31.1165L17.0436 31.1668L16.8173 31.1919L16.6162 31.2171L16.39 31.2422L16.1637 31.2673L15.9375 31.3176L15.7112 31.3427L15.485 31.3679L15.2588 31.393L15.0325 31.4181L14.8063 31.4684L14.58 31.4936L14.3538 31.5187L14.1276 31.5438L13.9013 31.5689L13.6751 31.6192L13.4488 31.6444L13.2226 31.6695L12.9963 31.6946L12.7701 31.7449L12.5439 31.77L12.3176 31.7952L12.0914 31.8203L11.8651 31.8454L11.6389 31.8957L11.4127 31.9208L11.1864 31.946L10.9602 31.9711L10.7339 31.9963L10.5077 32.0465L10.2814 32.0716L10.0552 32.0968L9.82896 32.1219L9.60272 32.1471L9.37648 32.1973L9.15024 32.2224L8.92399 32.2476L8.69775 32.2727L8.47151 32.323L8.24527 32.3481L8.01903 32.3733L7.79278 32.3984L7.56654 32.4235L7.3403 32.4738V15.2314H7.79278L8.01903 15.2566H8.47151L8.69775 15.2817H9.15024L9.37648 15.3069H9.82896L10.0552 15.332H10.5077L10.7339 15.3571H11.1864L11.4127 15.3822H11.8651L12.0914 15.4074H12.5439L12.7701 15.4325H13.2226L13.4488 15.4577H13.9013L14.1276 15.4828H14.58L14.8063 15.5079H15.0325L15.2588 15.5331H15.7112L15.9375 15.5582H16.39L16.6162 15.5833H17.0436L17.2698 15.6085H17.7223L17.9485 15.6336H18.401L18.6272 15.6588H19.0797L19.306 15.6839H19.7585L19.9847 15.709H20.4372L20.6634 15.7341H21.1159L21.3422 15.7593H21.7946L22.0209 15.7844H22.4734L22.6996 15.8096H23.1521L23.3783 15.8347H23.8308L24.0571 15.8598H24.2833L24.5095 15.8849H24.962L25.1883 15.9101H25.6407L25.867 15.9352H26.3195L26.5457 15.9604H26.9982L27.2244 15.9855H27.6769L27.9032 16.0106H28.3556L28.5819 16.0358H29.0344L29.2606 16.0609H29.7131L29.9142 16.086H30.3667L30.5929 16.1112H31.0454L31.2717 16.1363H31.7241L31.9504 16.1614H32.4029L32.6291 16.1866H33.0816L33.3078 16.2117H33.7603L33.9866 16.2368H34.2128L34.439 16.262H35.1178L35.344 16.2871H35.5702L35.7965 16.3122H36.249L36.4752 16.3374H36.9277L37.1539 16.3625H37.6064L37.8327 16.3876H38.2851L38.5114 16.4128H38.9639L39.1901 16.4379H39.6426L39.8688 16.463H40.3213L40.5476 16.4882H41L41.2263 16.5133H41.6788L41.905 16.5385H42.1313L42.3575 16.5636H43.0362L43.2373 16.5887H43.4636L43.6898 16.6138H44.1423L44.3685 16.639H44.821L45.0473 16.6641H45.4997L45.726 16.6893H46.1785L46.4047 16.7144H46.8572L47.0834 16.7395H47.5359L47.7622 16.7647H48.2146L48.4409 16.7898H48.8934L49.1196 16.8149H49.5721L49.7983 16.8401H50.2508L50.4771 16.8652H50.9295L51.1558 16.8903H51.382L51.6083 16.9155H52.0608L52.287 16.9406H52.7395L52.9657 16.9657H53.4182L53.6445 16.9909H54.0969L54.3232 17.016H54.7757L55.0019 17.0412H55.4544L55.6806 17.0663H56.1331L56.3593 17.0914H56.8118L57.0381 17.1165H57.4654L57.6917 17.1417H58.1441L58.3704 17.1668H58.8229L59.0491 17.192H59.5016L59.7278 17.2171H60.1803L60.4066 17.2422H60.8591L61.0853 17.2673H61.5378L61.764 17.2925H61.9903L62.2165 17.3176H62.669L62.8952 17.3428H63.3477L63.5739 17.3679H64.0264L64.2527 17.393H64.7052L64.9314 17.4182H65.1576Z" fill="#E7E7E7"/>
<path fill-rule="evenodd" clip-rule="evenodd" d="M60.4317 0.176025V14.5782L60.2306 14.553H59.6776L59.4765 14.5279H58.9235L58.7224 14.5027H58.3453L58.1693 14.4776H57.7922L57.5911 14.4525H57.0381L56.837 14.4274H56.2588L56.0829 14.4022H55.7058L55.5047 14.3771H54.9516L54.7505 14.3519H54.3735L54.1975 14.3268H53.6193L53.4434 14.3017H53.0663L52.8652 14.2766H52.3122L52.1111 14.2514H51.734L51.558 14.2263H51.181L50.9799 14.2011H50.4268L50.2257 14.176H49.8486L49.6727 14.1509H49.0945L48.8934 14.1257H48.5163L48.3404 14.1006H47.7622L47.5862 14.0755H47.2092L47.008 14.0503H46.455L46.2539 14.0252H45.8768L45.7009 14H45.1227L44.9467 13.9749H44.5697L44.3686 13.9498H43.8155L43.6144 13.9247H43.2373L43.0614 13.8995H42.4832L42.3072 13.8744H41.7291L41.528 13.8492H41.352L40.9749 13.8241H40.5979L40.3968 13.799H39.8437L39.6426 13.7739H39.2656L39.0896 13.7487H38.5114L38.3354 13.7236H37.9584L37.7573 13.6984H37.2042L37.0031 13.6733H36.6261L36.4501 13.6482H35.8719L35.696 13.623H35.2938L35.1178 13.5979H34.5647L34.3636 13.5728H33.9866L33.7855 13.5476H33.2324L33.0313 13.5225H32.6543L32.4783 13.4974H31.9001L31.7242 13.4722H31.3471L31.146 13.4471H30.5929L30.3918 13.422H30.0148L29.8388 13.3968H29.2606L29.0847 13.3717H28.7076L28.5065 13.3466H27.9535L27.7524 13.3214H27.3753L27.1993 13.2963H26.6211L26.42 13.2712H26.043L25.867 13.246H25.4899L25.1129 13.2209H24.7358L24.5347 13.1958H23.9817L23.7806 13.1706H23.4035L23.2275 13.1455H22.6493L22.4734 13.1203H22.0963L21.8952 13.0952H21.3422L21.1411 13.0701H20.764L20.588 13.045H20.0099L19.8088 13.0198H19.4317L19.2557 12.9947H18.6775L18.5016 12.9695H18.1245L17.9234 12.9444H17.3704L17.1693 12.9193H16.7922L16.6162 12.8942H16.0381L15.8621 12.869H15.485L15.2839 12.8439H14.7309L14.5298 12.8187H14.1527L13.9767 12.7936H13.3986L13.2226 12.7685H12.8204L12.6444 12.7433H12.0663V6.66076L12.2674 6.63563L12.4433 6.61051L12.6444 6.58535L12.8204 6.56022L13.0215 6.53509L13.2226 6.50996L13.3986 6.48483L13.5997 6.45967L13.7756 6.43454L13.9767 6.40942L14.1527 6.38429L14.3538 6.35916L14.5298 6.334L14.7309 6.30887L14.9068 6.28374L15.108 6.25861L15.2839 6.23349L15.485 6.20833L15.661 6.1832L15.8621 6.15807L16.0381 6.13294L16.2392 6.10781L16.4151 6.08265L16.6162 6.0324H16.7922L16.9933 6.00727L17.1693 5.98214L17.3704 5.93185H17.5463L17.7474 5.8816H17.9234L18.1245 5.83131L18.3005 5.80618L18.5016 5.78105L18.6775 5.75592L18.8786 5.73079L19.0546 5.70564L19.2557 5.68051L19.6328 5.63025L19.8088 5.60512L20.0099 5.57996L20.1858 5.55483L20.3869 5.52971L20.588 5.50458L20.764 5.47945L20.9651 5.45429L21.1411 5.42916L21.3422 5.40403L21.5181 5.3789L21.7192 5.35378L21.8952 5.32862L22.0963 5.30349L22.2723 5.27836L22.4734 5.25323L22.6493 5.2281L22.8505 5.20294L23.0264 5.17781L23.2275 5.15269L23.4035 5.12756L23.6046 5.10243L23.7806 5.07727L23.9817 5.05214L24.1576 5.02701L24.3587 5.00188L24.5347 4.97676L24.7358 4.9516L24.9118 4.92647L25.1129 4.90134L25.2888 4.87621L25.4899 4.85108L25.6659 4.82592L25.867 4.8008L26.043 4.77567L26.2441 4.75054L26.42 4.72541L26.6211 4.70025L26.7971 4.67512L26.9982 4.64999L27.1993 4.62487L27.3753 4.59974L27.5764 4.57458L27.7524 4.54945L27.9535 4.52432L28.1294 4.49919L28.3305 4.47406L28.5065 4.44891L28.7076 4.42378L28.8836 4.39865L29.0847 4.37352L29.2606 4.34839L29.4617 4.32323L29.6377 4.2981L29.8388 4.27298L30.0148 4.24785L30.2159 4.22272L30.5929 4.17243L30.7689 4.1473L30.97 4.12217L31.3471 4.07189L31.5231 4.04676L31.7242 4.02163L31.9001 3.9965L32.1012 3.97137L32.2772 3.94621L32.4783 3.92109L32.6543 3.89596L32.8554 3.87083L33.0313 3.8457L33.2324 3.82054L33.4084 3.79541L33.7855 3.74516L33.9866 3.72003L34.1625 3.69487L34.3636 3.66974L34.5647 3.64461L34.7407 3.61948L34.9167 3.59435L35.1178 3.5692L35.2938 3.54407L35.4949 3.51894L35.696 3.49381L35.8719 3.44352H36.073L36.249 3.39327H36.4501L36.8272 3.31785L37.0031 3.29272H37.2042L37.3802 3.24246L37.5813 3.21734L37.7573 3.19218L37.9584 3.16705L38.1343 3.14192L38.3354 3.11679L38.5114 3.09166L38.8885 3.04137L39.0896 3.01625L39.2656 2.99112L39.6426 2.94083L39.8437 2.9157L40.0197 2.89057L40.2208 2.86544L40.3968 2.84032L40.5979 2.81516L40.7738 2.79003L40.9749 2.7649L41.1509 2.73977L41.352 2.71464L41.528 2.68948L41.7291 2.66436L41.9302 2.63923L42.1061 2.6141L42.3072 2.58897L42.4832 2.56381L42.6592 2.53868L42.8603 2.51355L43.0614 2.48843L43.2373 2.4633L43.4385 2.43814L43.6144 2.41301L43.8155 2.38788L43.9915 2.36275L44.1926 2.33762L44.3686 2.31247L44.5697 2.28734L44.7456 2.26221L44.9467 2.23708L45.1227 2.21195L45.3238 2.18679L45.4998 2.16166L45.7009 2.13654L45.8768 2.11141L46.0779 2.08628L46.2539 2.06112L46.455 2.03599L46.631 2.01086L46.8321 1.98573L47.008 1.96061L47.2092 1.93545L47.3851 1.91032L47.5862 1.88519L47.7622 1.86006L47.9633 1.83493L48.1393 1.80977L48.3404 1.78465L48.5163 1.75952L48.7174 1.73439L48.8934 1.70926L49.0945 1.6841L49.2705 1.65897L49.4716 1.63384L49.6727 1.60872L49.8486 1.58359L50.0497 1.55843L50.2257 1.5333L50.4268 1.50817L50.6028 1.48304L50.9799 1.43275L51.181 1.40763L51.3569 1.3825L51.558 1.35737L51.734 1.33224L51.9351 1.30708L52.1111 1.28195L52.3122 1.25683L52.4881 1.2317L52.6892 1.20657L52.8652 1.18141L53.0663 1.15628L53.2423 1.13115L53.4434 1.10602L53.6193 1.0809L53.8204 1.05574L53.9964 1.03061L54.1975 1.00548L54.3735 0.980351L54.5746 0.955222L54.7505 0.930063L54.9516 0.904935L55.1276 0.879806L55.3287 0.854678L55.5047 0.80439H55.7058L56.0829 0.729005L56.2588 0.703876L56.4599 0.678717L56.6359 0.653589L56.837 0.62846L57.0381 0.603332L57.2141 0.578203L57.39 0.553044L57.5911 0.527916L57.7922 0.502787L57.9682 0.477659L58.1693 0.45253L58.3453 0.427371L58.5464 0.402243L58.7224 0.377114L58.9235 0.351986L59.0994 0.326857L59.3005 0.301698L59.4765 0.27657L59.8536 0.226313L60.0547 0.201185L60.2306 0.176025H60.2558H60.4317Z" fill="#E7E7E7"/>
<path fill-rule="evenodd" clip-rule="evenodd" d="M72.4979 26.0142V47.6048H0V35.7412L0.276519 35.691L0.553039 35.6659L0.854697 35.6156L1.13121 35.5904L1.40773 35.5402L1.68425 35.5151L1.98591 35.4648L2.26242 35.4396L2.53894 35.3894L2.81546 35.3642L3.11712 35.314L3.39363 35.2888L3.67015 35.2386L3.9718 35.2134L4.24832 35.1632L4.52484 35.138L4.80135 35.0878L5.10301 35.0626L5.37953 35.0124L5.65604 34.9872L5.93256 34.9369L6.23422 34.8867L6.51074 34.8615L7.06377 34.7861L7.36543 34.7359L7.64195 34.7107L7.91846 34.6856L8.22012 34.6353L8.49664 34.5851L8.77316 34.5599L9.04967 34.5097L9.35133 34.4845L9.62785 34.4343L9.90437 34.4091L10.1809 34.3588L10.4825 34.3337L10.7591 34.2835L11.0356 34.2583L11.3372 34.208L11.6137 34.1829L12.1668 34.1075L12.4684 34.0572L12.745 34.0321L13.0215 33.9818L13.298 33.9567L13.5996 33.9064L13.8762 33.8813L14.1527 33.831L14.4292 33.8059L14.7309 33.7556L15.0074 33.7305L15.2839 33.6802L15.5855 33.6551L15.8621 33.6048L16.1386 33.5797L16.4151 33.5294L16.7168 33.4791L16.9933 33.454L17.2698 33.4037L17.5463 33.3786L17.848 33.3283L18.1245 33.3032L18.401 33.2529L18.6775 33.2278L18.9792 33.1775L19.2557 33.1524L19.5322 33.1021L19.8339 33.077L20.1104 33.0267L20.3869 33.0016L20.6634 32.9513L20.9651 32.9262L21.2416 32.8759L21.5181 32.8508L21.7946 32.8005L22.0963 32.7754L22.3728 32.7251L22.6493 32.7L22.951 32.6497L23.2275 32.6246L23.504 32.5743L23.7805 32.5492L24.0822 32.4989L24.3587 32.4737L24.6352 32.4235L24.9117 32.3984L25.2134 32.3481L25.4899 32.3229L25.7664 32.2727L26.0429 32.2224L26.3446 32.1973L26.6211 32.147L26.8976 32.1219L27.1993 32.0716L27.4758 32.0465L27.7523 31.9962L28.0288 31.9711L28.3305 31.9208L28.607 31.8957L28.8835 31.8454L29.4617 31.77L29.7382 31.7449L30.0147 31.6946L30.2913 31.6694L30.8694 31.594L31.146 31.5438L31.4476 31.5186L31.7241 31.4684L32.0006 31.4432L32.2772 31.393L32.5788 31.3678L32.8553 31.3176L33.1319 31.2924L33.4084 31.2422L33.71 31.217L33.9865 31.1668L34.2631 31.1416L34.5647 31.0913L34.8412 31.0662L35.1178 31.016L35.3943 30.9657L35.6959 30.9405L35.9724 30.8903L36.249 30.8652L36.5255 30.8149L36.8271 30.7897L37.1037 30.7395L37.3802 30.7143L37.6567 30.6641L37.9583 30.6389L38.2349 30.5886L38.5114 30.5635L38.813 30.5133L39.0896 30.4881L39.3661 30.4378L39.6426 30.4127L39.9442 30.3625L40.2208 30.3373L40.4973 30.287L40.7738 30.2619L41.0755 30.2116L41.352 30.1865L41.6285 30.1362L41.905 30.1111L42.2067 30.0608L42.4832 30.0357L42.7597 29.9854L43.0614 29.9603L43.3379 29.91L43.6144 29.8849L43.8909 29.8346L44.1926 29.7844L44.4691 29.7592L44.7456 29.7341L45.0221 29.6838L45.3238 29.6336L45.6003 29.6084L45.8768 29.5581L46.1785 29.533L46.455 29.4827L46.7315 29.4576L47.3097 29.3822L47.5862 29.3319L47.8627 29.3068L48.1392 29.2565L48.4409 29.2314L48.7174 29.1811L48.9939 29.156L49.5721 29.0806L49.8486 29.0303L50.1251 29.0052L50.4268 28.9549L50.7033 28.9298L50.9798 28.8795L51.2563 28.8544L51.558 28.8041L51.8345 28.779L52.111 28.7287L52.3875 28.7036L52.6892 28.6533L52.9657 28.6282L53.2422 28.5779L53.5439 28.5276L53.8204 28.5025L54.0969 28.4774L54.3734 28.4271L54.6751 28.3768L54.9516 28.3517L55.2281 28.3014L55.5047 28.2763L55.8063 28.226L56.0828 28.2009L56.3593 28.1506L56.6359 28.1255L56.9375 28.0752L57.214 28.0501L57.4906 27.9998L57.7922 27.9747L58.0687 27.9244L58.3452 27.8993L58.6218 27.849L58.9234 27.8238L59.1999 27.7736L59.4765 27.7485L59.753 27.6982L60.0546 27.673L60.3311 27.6228L60.9093 27.5474L61.1858 27.5222L61.4624 27.472L61.7389 27.4468L62.0405 27.3966L62.317 27.3714L62.5936 27.3211L62.8701 27.2709L63.1717 27.2458L63.4483 27.1955L63.7248 27.1703L64.0013 27.1201L64.5795 27.0447L64.856 27.0195L65.1576 26.9693L65.4342 26.9441L65.7107 26.8939L65.9872 26.8687L66.2888 26.8185L66.5654 26.7933L66.8419 26.7431L67.1184 26.7179L67.4201 26.6677L67.6966 26.6425L67.9731 26.5923L68.2747 26.5671L68.5513 26.5169L68.8278 26.4917L69.1043 26.4414L69.406 26.4163L69.6825 26.3661L69.959 26.3409L70.2355 26.2906L70.5372 26.2655L70.8137 26.2152L71.0902 26.1901L71.3667 26.1398L71.9449 26.0644L72.2214 26.0393L72.3471 26.0142H72.4979Z" fill="#E7E7E7"/>
<path fill-rule="evenodd" clip-rule="evenodd" d="M93.2619 23.3502L96.2282 10.1294L99.1945 23.3502H93.2619ZM99.471 0.226318H93.1111L83.2318 35.9426H89.818L91.6782 29.6087H100.828L102.638 35.9426H109.225L99.471 0.226318Z" fill="#E7E7E7"/>
<path fill-rule="evenodd" clip-rule="evenodd" d="M127.701 9.5009H134.161C133.558 2.36267 129.285 0 122.824 0C115.509 0 111.411 3.46858 111.411 10.1544C111.411 17.544 115.685 19.5547 119.732 20.0574C123.528 20.5601 128.556 20.5601 128.556 24.7827C128.556 28.8294 126.771 30.4632 122.925 30.4632C118.852 30.4632 117.646 28.9802 117.495 26.2406H111.034C111.034 31.9964 113.875 36.2944 122.799 36.2944C131.371 36.2944 134.966 32.8258 134.966 24.5565C134.966 17.4183 131.019 15.7343 126.871 15.0808C121.442 14.2513 117.872 14.6284 117.872 10.1293C117.872 6.73609 119.305 5.60503 122.824 5.60503C125.941 5.60503 127.525 6.48475 127.701 9.5009Z" fill="#E7E7E7"/>
<path fill-rule="evenodd" clip-rule="evenodd" d="M146.705 30.1365V6.0324H152.185C157.163 6.0324 157.892 7.79182 157.892 11.185V25.1096C157.892 28.5027 156.735 30.1365 152.085 30.1365H146.705ZM140.345 0.176025V35.9426H152.085C160.581 35.9426 164.302 32.8259 164.302 25.4363V10.8582C164.302 3.29272 160.732 0.176025 152.085 0.176025H140.345Z" fill="#E7E7E7"/>
<path fill-rule="evenodd" clip-rule="evenodd" d="M86.4998 47.58L84.5139 44.8905L86.349 42.176H85.5697L83.9608 44.5638H83.7095V42.176H83.0559V47.58H83.7095V45.2424H83.9608L85.6954 47.58H86.4998Z" fill="#E7E7E7"/>
<path fill-rule="evenodd" clip-rule="evenodd" d="M92.2313 44.79L92.5078 45.9462H91.2257L91.5023 44.8152L91.8793 43.0558L92.2313 44.79ZM93.639 47.58L92.2061 42.2012H91.5274L90.0945 47.58H90.7984L91.0749 46.5746H92.6837L92.9602 47.58H93.639Z" fill="#E7E7E7"/>
<path fill-rule="evenodd" clip-rule="evenodd" d="M98.4654 42.176H97.7113V47.58H98.3649V45.0413L98.2643 43.5584L99.2447 46.5746H99.5715L100.552 43.5584L100.451 45.0413V47.58H101.13V42.176H100.351L99.4207 45.1419L98.4654 42.176Z" fill="#E7E7E7"/>
<path fill-rule="evenodd" clip-rule="evenodd" d="M106.283 42.2012H105.605V47.58H106.283V42.2012Z" fill="#E7E7E7"/>
<path fill-rule="evenodd" clip-rule="evenodd" d="M110.758 42.176V47.58H113.649V46.9516H111.437V45.0162H113.297V44.3878H111.437V42.7541H113.498V42.176H110.758Z" fill="#E7E7E7"/>
<path fill-rule="evenodd" clip-rule="evenodd" d="M118.526 42.176H117.897V47.58H118.576V45.4686L118.526 43.7092L120.31 47.58H120.939V42.176H120.26V44.4633L120.361 46.2981L118.526 42.176Z" fill="#E7E7E7"/>
<path fill-rule="evenodd" clip-rule="evenodd" d="M126.092 42.2012H125.413V47.58H126.092V42.2012Z" fill="#E7E7E7"/>
<path fill-rule="evenodd" clip-rule="evenodd" d="M132.276 44.79L132.553 45.9462H131.27L131.547 44.8152L131.899 43.0558L132.276 44.79ZM133.684 47.58L132.251 42.2012H131.572L130.139 47.58H130.843L131.12 46.5746H132.728L133.005 47.58H133.684Z" fill="#E7E7E7"/>
<path fill-rule="evenodd" clip-rule="evenodd" d="M139.189 42.8044C139.767 42.8295 140.044 42.9049 140.044 43.6338V44.0108C140.044 44.7649 139.767 44.9408 139.189 44.9408H138.41V42.8044H139.189ZM140.722 44.0108V43.6338C140.722 42.553 140.119 42.176 139.189 42.176H137.731V47.58H138.41V45.5692H139.013L140.094 47.58H140.873L139.717 45.544C140.446 45.3932 140.722 44.8905 140.722 44.0108Z" fill="#E7E7E7"/>
<path fill-rule="evenodd" clip-rule="evenodd" d="M148.038 43.5079C147.987 42.6282 147.56 42.1255 146.479 42.1255C145.348 42.1255 144.895 42.6533 144.895 43.6336C144.895 44.6641 145.624 44.9657 146.253 45.016C146.906 45.0914 147.485 45.0914 147.485 45.9711C147.485 46.5995 147.334 46.9514 146.63 46.9514H146.479C145.8 46.9514 145.599 46.5995 145.549 46.147H144.845C144.895 47.0519 145.398 47.6049 146.504 47.6049H146.63C147.736 47.6049 148.188 47.1022 148.188 45.946C148.188 44.8149 147.535 44.5133 146.906 44.4379C146.228 44.3876 145.574 44.3876 145.574 43.6336C145.574 43.1057 145.725 42.7539 146.479 42.7539C147.158 42.7539 147.309 43.0806 147.334 43.5079H148.038Z" fill="#E7E7E7"/>
<path fill-rule="evenodd" clip-rule="evenodd" d="M154.951 42.8295V42.2012H152.06V42.8295H153.166V47.58H153.844V42.8295H154.951Z" fill="#E7E7E7"/>
<path fill-rule="evenodd" clip-rule="evenodd" d="M160.179 46.474L159.777 44.4633L159.274 42.176H158.57L159.878 47.58H160.481L160.933 45.7702L161.361 43.8349L161.788 45.7702L162.241 47.58H162.844L164.126 42.176H163.447L162.919 44.4633L162.542 46.474L161.612 42.4776H161.109L160.179 46.474Z" fill="#E7E7E7"/>
<path fill-rule="evenodd" clip-rule="evenodd" d="M170.813 45.8203C170.813 46.6497 170.762 47.0016 169.757 47.0016C168.751 47.0016 168.676 46.6497 168.676 45.8203V43.91C168.676 43.0554 168.751 42.7036 169.757 42.7036C170.762 42.7036 170.813 43.0554 170.813 43.91V45.8203ZM171.491 43.91C171.491 42.7287 171.24 42.1003 169.757 42.1003C168.274 42.1003 167.997 42.7287 167.997 43.91V45.7951C167.997 46.9764 168.274 47.6299 169.757 47.6299C171.24 47.6299 171.491 46.9764 171.491 45.7951V43.91Z" fill="#E7E7E7"/>
<path fill-rule="evenodd" clip-rule="evenodd" d="M85.8211 54.1904C85.8211 55.045 85.7708 55.3717 84.7653 55.3717C83.7598 55.3717 83.6843 55.045 83.6843 54.1904V52.3053C83.6843 51.4507 83.7598 51.0988 84.7653 51.0988C85.7708 51.0988 85.8211 51.4507 85.8211 52.3053V54.1904ZM86.4998 52.3053C86.4998 51.124 86.2233 50.4956 84.7653 50.4956C83.2821 50.4956 83.0056 51.124 83.0056 52.3053V54.1904C83.0056 55.3717 83.2821 56.0001 84.7653 56.0001C86.2233 56.0001 86.4998 55.3717 86.4998 54.1904V52.3053Z" fill="#E7E7E7"/>
<path fill-rule="evenodd" clip-rule="evenodd" d="M93.9406 51.9029C93.8904 50.9981 93.463 50.5205 92.3821 50.5205C91.2509 50.5205 90.7984 51.0232 90.7984 52.0286C90.7984 53.0591 91.5274 53.3607 92.1558 53.411C92.8346 53.4613 93.4127 53.4864 93.4127 54.3661C93.4127 54.9945 93.2619 55.3212 92.5329 55.3212H92.4072C91.7034 55.3212 91.5023 54.9693 91.4771 54.5169H90.7481C90.7984 55.4469 91.3012 55.9747 92.4072 55.9747H92.5329C93.639 55.9747 94.0915 55.472 94.0915 54.3158C94.0915 53.2099 93.4379 52.8832 92.8346 52.8329C92.1558 52.7575 91.5022 52.7575 91.5022 52.0286C91.5022 51.4756 91.6531 51.1489 92.3821 51.1489C93.0608 51.1489 93.2116 51.4505 93.2619 51.9029H93.9406Z" fill="#E7E7E7"/>
<path fill-rule="evenodd" clip-rule="evenodd" d="M101.155 54.1904C101.155 55.045 101.08 55.3717 100.074 55.3717C99.0688 55.3717 98.9934 55.045 98.9934 54.1904V52.3053C98.9934 51.4507 99.0688 51.0988 100.074 51.0988C101.08 51.0988 101.155 51.4507 101.155 52.3053V54.1904ZM101.809 52.3053C101.809 51.124 101.557 50.4956 100.074 50.4956C98.5912 50.4956 98.3146 51.124 98.3146 52.3053V54.1904C98.3146 55.3717 98.5912 56.0001 100.074 56.0001C101.557 56.0001 101.809 55.3717 101.809 54.1904V52.3053Z" fill="#E7E7E7"/>
<path fill-rule="evenodd" clip-rule="evenodd" d="M107.54 51.174C107.968 51.174 108.32 51.4254 108.32 51.9532C108.32 52.3302 108.093 52.7575 107.465 52.7575H106.836V51.174H107.54ZM106.862 55.3212V53.411H107.817C108.445 53.411 108.822 53.6372 108.822 54.3158C108.822 54.9442 108.596 55.3212 107.792 55.3212H106.862ZM106.183 55.9496H107.766C108.873 55.9496 109.501 55.4469 109.501 54.3158C109.501 53.6121 109.199 53.1345 108.596 52.9586C108.873 52.6821 108.998 52.3805 108.998 51.9532C108.998 51.0986 108.495 50.5457 107.54 50.5457H106.183V55.9496Z" fill="#E7E7E7"/>
<path fill-rule="evenodd" clip-rule="evenodd" d="M116.515 54.1904C116.515 55.045 116.439 55.3717 115.434 55.3717C114.428 55.3717 114.353 55.045 114.353 54.1904V52.3053C114.353 51.4507 114.428 51.0988 115.434 51.0988C116.439 51.0988 116.515 51.4507 116.515 52.3053V54.1904ZM117.168 52.3053C117.168 51.124 116.917 50.4956 115.434 50.4956C113.95 50.4956 113.674 51.124 113.674 52.3053V54.1904C113.674 55.3717 113.95 56.0001 115.434 56.0001C116.917 56.0001 117.168 55.3717 117.168 54.1904V52.3053Z" fill="#E7E7E7"/>
<path fill-rule="evenodd" clip-rule="evenodd" d="M122.623 54.8437L122.246 52.8329L121.718 50.5708H121.039L122.321 55.9496H122.925L123.377 54.1399L123.805 52.2046L124.232 54.1399L124.684 55.9496H125.313L126.595 50.5708H125.891L125.388 52.8329L124.986 54.8437L124.081 50.8473H123.553L122.623 54.8437Z" fill="#E7E7E7"/>
<path fill-rule="evenodd" clip-rule="evenodd" d="M131.346 50.5708H130.667V55.9496H131.346V50.5708Z" fill="#E7E7E7"/>
<path fill-rule="evenodd" clip-rule="evenodd" d="M139.164 52.0788C139.139 51.0483 138.887 50.5205 137.48 50.5205C136.047 50.5205 135.77 51.1489 135.77 52.3302V54.165C135.77 55.3463 135.896 55.9998 137.48 55.9998C139.063 55.9998 139.164 55.3463 139.164 54.3158H138.535C138.535 55.1453 138.385 55.3463 137.48 55.3463C136.575 55.3463 136.424 55.0196 136.424 54.165V52.3302C136.424 51.4756 136.549 51.1489 137.48 51.1489C138.385 51.1489 138.51 51.4253 138.51 52.0788H139.164Z" fill="#E7E7E7"/>
<path fill-rule="evenodd" clip-rule="evenodd" d="M143.462 50.5708V55.9496H146.353V55.3213H144.141V53.3859H146.001V52.7575H144.141V51.1489H146.177V50.5708H143.462Z" fill="#E7E7E7"/>
</svg>
