<svg width="1565" height="3743" viewBox="0 0 1565 3743" fill="none" xmlns="http://www.w3.org/2000/svg">
<rect width="1565" height="3743" fill="#E5E5E5"/>
<path d="M0 -112V111.665L180 -0.531893L0 -112Z" fill="#1E89B3" fill-opacity="0.1"/>
<path d="M0 2V225.665L180 113.468L0 2Z" fill="#1E89B3" fill-opacity="0.2"/>
<path d="M0 115V338.665L180 226.468L0 115Z" fill="#1E89B3" fill-opacity="0.3"/>
<path d="M0 229V452.665L180 340.468L0 229Z" fill="#1E89B3" fill-opacity="0.4"/>
<path d="M0 342V565.665L180 453.468L0 342Z" fill="#1E89B3" fill-opacity="0.5"/>
<path d="M0 456V679.665L180 567.468L0 456Z" fill="#1E89B3" fill-opacity="0.6"/>
<path d="M0 569V792.665L180 680.468L0 569Z" fill="#1E89B3" fill-opacity="0.7"/>
<path d="M0 683V906.665L180 794.468L0 683Z" fill="#1E89B3" fill-opacity="0.8"/>
<path d="M0 796V1019.66L180 907.468L0 796Z" fill="#1E89B3" fill-opacity="0.9"/>
<path d="M1565 910V1133.66L1385 1021.47L1565 910Z" fill="#1E89B3" fill-opacity="0.1"/>
<path d="M1565 1023V1246.66L1385 1134.47L1565 1023Z" fill="#1E89B3" fill-opacity="0.2"/>
<path d="M1565 1137V1360.66L1385 1248.47L1565 1137Z" fill="#1E89B3" fill-opacity="0.3"/>
<path d="M1565 1250V1473.66L1385 1361.47L1565 1250Z" fill="#1E89B3" fill-opacity="0.4"/>
<path d="M1565 1364V1587.66L1385 1475.47L1565 1364Z" fill="#1E89B3" fill-opacity="0.5"/>
<path d="M1565 1477V1700.66L1385 1588.47L1565 1477Z" fill="#1E89B3" fill-opacity="0.6"/>
<path d="M1565 1591V1814.66L1385 1702.47L1565 1591Z" fill="#1E89B3" fill-opacity="0.7"/>
<path d="M1565 1704V1927.66L1385 1815.47L1565 1704Z" fill="#1E89B3" fill-opacity="0.8"/>
<path d="M1565 1020V796.335L1385 908.532L1565 1020Z" fill="#1E89B3" fill-opacity="0.1"/>
<path d="M1565 907V683.335L1385 795.532L1565 907Z" fill="#1E89B3" fill-opacity="0.2"/>
<path d="M1565 793V569.335L1385 681.532L1565 793Z" fill="#1E89B3" fill-opacity="0.3"/>
<path d="M1565 680V456.335L1385 568.532L1565 680Z" fill="#1E89B3" fill-opacity="0.4"/>
<path d="M1565 566V342.335L1385 454.532L1565 566Z" fill="#1E89B3" fill-opacity="0.5"/>
<path d="M1565 453V229.335L1385 341.532L1565 453Z" fill="#1E89B3" fill-opacity="0.6"/>
<path d="M1565 339V115.335L1385 227.532L1565 339Z" fill="#1E89B3" fill-opacity="0.7"/>
<path d="M1565 226V2.33525L1385 114.532L1565 226Z" fill="#1E89B3" fill-opacity="0.8"/>
<path d="M1565 112V-111.665L1385 0.531893L1565 112Z" fill="#1E89B3" fill-opacity="0.9"/>
<path d="M0 1928V1704.34L180 1816.53L0 1928Z" fill="#1E89B3" fill-opacity="0.1"/>
<path d="M0 1815V1591.34L180 1703.53L0 1815Z" fill="#1E89B3" fill-opacity="0.2"/>
<path d="M0 1701V1477.34L180 1589.53L0 1701Z" fill="#1E89B3" fill-opacity="0.3"/>
<path d="M0 1588V1364.34L180 1476.53L0 1588Z" fill="#1E89B3" fill-opacity="0.4"/>
<path d="M0 1474V1250.34L180 1362.53L0 1474Z" fill="#1E89B3" fill-opacity="0.5"/>
<path d="M0 1361V1137.34L180 1249.53L0 1361Z" fill="#1E89B3" fill-opacity="0.6"/>
<path d="M0 1247V1023.34L180 1135.53L0 1247Z" fill="#1E89B3" fill-opacity="0.7"/>
<path d="M0 1134V910.335L180 1022.53L0 1134Z" fill="#1E89B3" fill-opacity="0.8"/>
<path d="M0 1816V2039.66L180 1927.47L0 1816Z" fill="#1E89B3" fill-opacity="0.1"/>
<path d="M0 1930V2153.66L180 2041.47L0 1930Z" fill="#1E89B3" fill-opacity="0.2"/>
<path d="M0 2043V2266.66L180 2154.47L0 2043Z" fill="#1E89B3" fill-opacity="0.3"/>
<path d="M0 2157V2380.66L180 2268.47L0 2157Z" fill="#1E89B3" fill-opacity="0.4"/>
<path d="M0 2270V2493.66L180 2381.47L0 2270Z" fill="#1E89B3" fill-opacity="0.5"/>
<path d="M0 2384V2607.66L180 2495.47L0 2384Z" fill="#1E89B3" fill-opacity="0.6"/>
<path d="M0 2497V2720.66L180 2608.47L0 2497Z" fill="#1E89B3" fill-opacity="0.7"/>
<path d="M0 2611V2834.66L180 2722.47L0 2611Z" fill="#1E89B3" fill-opacity="0.8"/>
<path d="M0 2724V2947.66L180 2835.47L0 2724Z" fill="#1E89B3" fill-opacity="0.9"/>
<path d="M1565 2838V3061.66L1385 2949.47L1565 2838Z" fill="#1E89B3" fill-opacity="0.1"/>
<path d="M1565 2951V3174.66L1385 3062.47L1565 2951Z" fill="#1E89B3" fill-opacity="0.2"/>
<path d="M1565 3065V3288.66L1385 3176.47L1565 3065Z" fill="#1E89B3" fill-opacity="0.3"/>
<path d="M1565 3178V3401.66L1385 3289.47L1565 3178Z" fill="#1E89B3" fill-opacity="0.4"/>
<path d="M1565 3292V3515.66L1385 3403.47L1565 3292Z" fill="#1E89B3" fill-opacity="0.5"/>
<path d="M1565 3405V3628.66L1385 3516.47L1565 3405Z" fill="#1E89B3" fill-opacity="0.6"/>
<path d="M1565 3519V3742.66L1385 3630.47L1565 3519Z" fill="#1E89B3" fill-opacity="0.7"/>
<path d="M1565 3632V3855.66L1385 3743.47L1565 3632Z" fill="#1E89B3" fill-opacity="0.8"/>
<path d="M1565 2948V2724.34L1385 2836.53L1565 2948Z" fill="#1E89B3" fill-opacity="0.1"/>
<path d="M1565 2835V2611.34L1385 2723.53L1565 2835Z" fill="#1E89B3" fill-opacity="0.2"/>
<path d="M1565 2721V2497.34L1385 2609.53L1565 2721Z" fill="#1E89B3" fill-opacity="0.3"/>
<path d="M1565 2608V2384.34L1385 2496.53L1565 2608Z" fill="#1E89B3" fill-opacity="0.4"/>
<path d="M1565 2494V2270.34L1385 2382.53L1565 2494Z" fill="#1E89B3" fill-opacity="0.5"/>
<path d="M1565 2381V2157.34L1385 2269.53L1565 2381Z" fill="#1E89B3" fill-opacity="0.6"/>
<path d="M1565 2267V2043.34L1385 2155.53L1565 2267Z" fill="#1E89B3" fill-opacity="0.7"/>
<path d="M1565 2154V1930.34L1385 2042.53L1565 2154Z" fill="#1E89B3" fill-opacity="0.8"/>
<path d="M1565 2040V1816.34L1385 1928.53L1565 2040Z" fill="#1E89B3" fill-opacity="0.9"/>
<path d="M0 3856V3632.34L180 3744.53L0 3856Z" fill="#1E89B3" fill-opacity="0.1"/>
<path d="M0 3743V3519.34L180 3631.53L0 3743Z" fill="#1E89B3" fill-opacity="0.2"/>
<path d="M0 3629V3405.34L180 3517.53L0 3629Z" fill="#1E89B3" fill-opacity="0.3"/>
<path d="M0 3516V3292.34L180 3404.53L0 3516Z" fill="#1E89B3" fill-opacity="0.4"/>
<path d="M0 3402V3178.34L180 3290.53L0 3402Z" fill="#1E89B3" fill-opacity="0.5"/>
<path d="M0 3289V3065.34L180 3177.53L0 3289Z" fill="#1E89B3" fill-opacity="0.6"/>
<path d="M0 3175V2951.34L180 3063.53L0 3175Z" fill="#1E89B3" fill-opacity="0.7"/>
<path d="M0 3062V2838.34L180 2950.53L0 3062Z" fill="#1E89B3" fill-opacity="0.8"/>
</svg>
