<svg width="1147" height="377" viewBox="0 0 1147 377" fill="none" xmlns="http://www.w3.org/2000/svg">
<path fill-rule="evenodd" clip-rule="evenodd" d="M435.783 117.263V166.164L434.27 166.334L432.757 166.672L431.244 166.841L429.731 167.01L428.218 167.18L426.705 167.349L425.192 167.687L423.678 167.856L422.165 168.026L420.652 168.195L419.139 168.364L417.626 168.702L416.113 168.872L414.6 169.041L413.086 169.21L411.573 169.548L410.06 169.718L408.547 169.887L407.034 170.056L405.521 170.225L404.008 170.564L402.494 170.733L400.981 170.902L399.468 171.071L397.955 171.24L394.929 171.748L393.416 171.917L391.903 172.087L390.389 172.425L388.876 172.594L387.363 172.763L385.85 172.933L384.337 173.102L382.824 173.44L381.479 173.609L379.966 173.779L378.452 173.948L376.939 174.117L375.426 174.286L373.913 174.625L372.4 174.794L370.887 174.963L369.374 175.132L367.86 175.471L366.347 175.64L364.834 175.809L363.321 175.978L361.808 176.148L360.295 176.486L358.782 176.655L357.268 176.824L355.755 176.994L354.242 177.163L352.729 177.501L351.216 177.671L349.703 177.84L348.19 178.009L346.677 178.178L345.163 178.517L343.65 178.686L342.137 178.855L340.624 179.024L339.111 179.193L337.598 179.532L336.085 179.701L334.571 179.87L333.058 180.04L331.545 180.378L330.032 180.547L328.519 180.716L327.006 180.886L325.493 181.055L323.979 181.393L322.466 181.562L320.953 181.732L319.44 181.901L317.927 182.07L316.414 182.408L314.901 182.578L313.388 182.747L311.874 182.916L310.361 183.085L308.848 183.424L307.335 183.593L305.822 183.762L304.309 183.931L302.796 184.27L301.282 184.439L299.769 184.608L298.256 184.777L296.743 184.947L295.23 185.285L293.717 185.454L292.204 185.623L290.69 185.793L289.177 185.962L287.832 186.3L286.319 186.469L284.806 186.639L283.293 186.808L281.78 186.977L280.267 187.315L278.754 187.485L277.24 187.654L275.727 187.823L274.214 188.161L272.701 188.331L271.188 188.5L269.675 188.669L268.162 188.838L266.648 189.177L265.135 189.346L263.622 189.515L262.109 189.684L260.596 189.854L259.083 190.192L257.57 190.361L256.056 190.53L254.543 190.7L253.03 190.869L251.517 191.207L250.004 191.377L248.491 191.546L246.978 191.715L245.464 191.884L243.951 192.223L242.438 192.392L240.925 192.561L239.412 192.73L237.899 192.899L236.386 193.238L234.873 193.407L233.359 193.576L231.846 193.745L230.333 194.084L228.82 194.253L227.307 194.422L225.794 194.592L224.281 194.761L222.767 195.099L221.254 195.268L219.741 195.438L218.228 195.607L216.715 195.776L215.202 196.114L213.689 196.284L212.175 196.453L210.662 196.622L209.149 196.791L207.636 197.13L206.123 197.299L204.61 197.468L203.097 197.637L201.584 197.807L200.07 198.145L198.725 198.314L197.212 198.483L195.699 198.653L194.186 198.991L192.673 199.16L191.16 199.329L189.647 199.499L188.133 199.668L186.62 200.006L185.107 200.176L183.594 200.345L182.081 200.514L180.568 200.683L179.055 201.022L177.541 201.191L176.028 201.36L174.515 201.529L173.002 201.698L171.489 202.037L169.976 202.206L168.463 202.375L166.95 202.544L165.436 202.883L163.923 203.052L162.41 203.221L160.897 203.39L159.384 203.56L157.871 203.898L156.358 204.067L154.844 204.236L153.331 204.406L151.818 204.575L150.305 204.913L148.792 205.082L147.279 205.252L145.766 205.421L144.252 205.59L142.739 205.929L141.226 206.098L139.713 206.267L138.2 206.436L136.687 206.605L135.174 206.944L133.66 207.113L132.147 207.282L130.634 207.451L129.121 207.621L127.608 207.959L126.095 208.128L124.582 208.298L123.069 208.467L121.555 208.636L120.042 208.974L118.529 209.144L117.016 209.313L115.503 209.482L113.99 209.82L112.477 209.99L111.132 210.159L109.618 210.328L108.105 210.497L106.592 210.836L105.079 211.005L103.566 211.174L102.053 211.343L100.54 211.513L99.0265 211.851L97.5133 212.02L96.0002 212.189L94.4871 212.359L92.9739 212.528L91.4608 212.866L89.9476 213.035L88.4345 213.205L86.9214 213.374L85.4082 213.712L83.8951 213.882L82.3819 214.051L80.8688 214.22L79.3557 214.389L77.8426 214.728L76.3294 214.897L74.8163 215.066L73.3031 215.235L71.79 215.404L70.2769 215.743L68.7638 215.912L67.2506 216.081L65.7375 216.25L64.2243 216.42L62.7112 216.758L61.1981 216.927L59.6849 217.097L58.1718 217.266L56.6586 217.604L55.1455 217.773L53.6324 217.943L52.1192 218.112L50.6061 218.281L49.093 218.619V102.541H52.1192L53.6324 102.71H56.6586L58.1718 102.88H61.1981L62.7112 103.049H65.7375L67.2506 103.218H70.2769L71.79 103.387H74.8163L76.3294 103.556H79.3557L80.8688 103.726H83.8951L85.4082 103.895H88.4345L89.9476 104.064H92.9739L94.4871 104.233H97.5133L99.0265 104.403H100.54L102.053 104.572H105.079L106.592 104.741H109.618L111.132 104.91H113.99L115.503 105.079H118.529L120.042 105.249H123.069L124.582 105.418H127.608L129.121 105.587H132.147L133.66 105.756H136.687L138.2 105.925H141.226L142.739 106.095H145.766L147.279 106.264H150.305L151.818 106.433H154.844L156.358 106.602H159.384L160.897 106.772H162.41L163.923 106.941H166.95L168.463 107.11H171.489L173.002 107.279H176.028L177.541 107.448H180.568L182.081 107.618H185.107L186.62 107.787H189.647L191.16 107.956H194.186L195.699 108.125H198.725L200.07 108.294H203.097L204.61 108.464H207.636L209.149 108.633H212.175L213.689 108.802H216.715L218.228 108.971H221.254L222.767 109.14H225.794L227.307 109.31H228.82L230.333 109.479H234.873L236.386 109.648H237.899L239.412 109.817H242.438L243.951 109.987H246.978L248.491 110.156H251.517L253.03 110.325H256.056L257.57 110.494H260.596L262.109 110.663H265.135L266.648 110.833H269.675L271.188 111.002H274.214L275.727 111.171H278.754L280.267 111.34H281.78L283.293 111.509H287.832L289.177 111.679H290.69L292.204 111.848H295.23L296.743 112.017H299.769L301.282 112.186H304.309L305.822 112.356H308.848L310.361 112.525H313.388L314.901 112.694H317.927L319.44 112.863H322.466L323.979 113.032H327.006L328.519 113.202H331.545L333.058 113.371H336.085L337.598 113.54H340.624L342.137 113.709H343.65L345.163 113.878H348.19L349.703 114.048H352.729L354.242 114.217H357.268L358.782 114.386H361.808L363.321 114.555H366.347L367.86 114.725H370.887L372.4 114.894H375.426L376.939 115.063H379.966L381.479 115.232H384.337L385.85 115.401H388.876L390.389 115.571H393.416L394.929 115.74H397.955L399.468 115.909H402.494L404.008 116.078H407.034L408.547 116.247H411.573L413.086 116.417H414.6L416.113 116.586H419.139L420.652 116.755H423.678L425.192 116.924H428.218L429.731 117.093H432.757L434.27 117.263H435.783Z" fill="#7D8082" fill-opacity="0.67"/>
<path fill-rule="evenodd" clip-rule="evenodd" d="M404.176 1.18457V98.1418L402.831 97.9727H399.132L397.787 97.8035H394.088L392.743 97.6341H390.221L389.044 97.465H386.522L385.177 97.2958H381.479L380.134 97.1266H376.267L375.09 96.9575H372.568L371.223 96.7881H367.524L366.179 96.6189H363.657L362.48 96.4498H358.613L357.437 96.2806H354.915L353.57 96.1114H349.871L348.526 95.942H346.004L344.827 95.7729H342.305L340.96 95.6037H337.261L335.916 95.4345H333.395L332.218 95.2654H328.351L327.006 95.096H324.484L323.307 94.9268H319.44L318.263 94.7577H315.741L314.396 94.5885H310.698L309.352 94.4193H306.831L305.654 94.2499H301.787L300.61 94.0808H298.088L296.743 93.9116H293.044L291.699 93.7424H289.177L288 93.5733H284.134L282.957 93.4039H279.09L277.745 93.2347H276.568L274.046 93.0656H271.524L270.179 92.8964H266.48L265.135 92.7272H262.613L261.436 92.5578H257.57L256.393 92.3887H253.871L252.526 92.2195H248.827L247.482 92.0503H244.96L243.783 91.8812H239.916L238.739 91.7118H236.049L234.873 91.5426H231.174L229.829 91.3735H227.307L225.962 91.2043H222.263L220.918 91.0351H218.396L217.219 90.8657H213.352L212.175 90.6966H209.654L208.309 90.5274H204.61L203.265 90.3582H200.743L199.566 90.1891H195.699L194.522 90.0197H192L190.655 89.8505H186.957L185.612 89.6814H183.09L181.913 89.5122H178.046L176.701 89.343H174.179L173.002 89.1736H170.48L167.958 89.0045H165.436L164.091 88.8353H160.393L159.048 88.6661H156.526L155.349 88.497H151.482L150.305 88.3276H147.783L146.438 88.1584H142.739L141.394 87.9893H138.872L137.696 87.8201H133.829L132.484 87.6509H129.962L128.785 87.4816H124.918L123.741 87.3124H121.219L119.874 87.1432H116.175L114.83 86.974H112.308L111.132 86.8049H107.265L106.088 86.6355H103.566L102.221 86.4663H98.5221L97.1771 86.2972H94.6552L93.4783 86.128H89.6114L88.4345 85.9588H85.7445L84.5676 85.7895H80.7007V44.8408L82.0457 44.6716L83.2226 44.5024L84.5676 44.3331L85.7445 44.1639L87.0895 43.9947L88.4345 43.8256L89.6114 43.6564L90.9564 43.487L92.1333 43.3178L93.4783 43.1487L94.6552 42.9795L96.0002 42.8103L97.1771 42.641L98.5221 42.4718L99.699 42.3026L101.044 42.1335L102.221 41.9643L103.566 41.7949L104.743 41.6257L106.088 41.4566L107.265 41.2874L108.61 41.1182L109.787 40.9489L111.132 40.6105H112.308L113.653 40.4414L114.83 40.2722L116.175 39.9336H117.352L118.697 39.5953H119.874L121.219 39.2568L122.396 39.0876L123.741 38.9184L124.918 38.7493L126.263 38.5801L127.44 38.4107L128.785 38.2416L131.307 37.9032L132.484 37.734L133.829 37.5647L135.006 37.3955L136.351 37.2263L137.696 37.0572L138.872 36.888L140.217 36.7186L141.394 36.5495L142.739 36.3803L143.916 36.2111L145.261 36.0419L146.438 35.8726L147.783 35.7034L148.96 35.5342L150.305 35.3651L151.482 35.1959L152.827 35.0265L154.004 34.8574L155.349 34.6882L156.526 34.519L157.871 34.3498L159.048 34.1805L160.393 34.0113L161.569 33.8421L162.914 33.673L164.091 33.5038L165.436 33.3344L166.613 33.1653L167.958 32.9961L169.135 32.8269L170.48 32.6578L171.657 32.4884L173.002 32.3192L174.179 32.15L175.524 31.9809L176.701 31.8117L178.046 31.6423L179.223 31.4732L180.568 31.304L181.913 31.1348L183.09 30.9657L184.435 30.7963L185.612 30.6271L186.957 30.4579L188.133 30.2888L189.478 30.1196L190.655 29.9502L192 29.7811L193.177 29.6119L194.522 29.4427L195.699 29.2736L197.044 29.1042L198.221 28.935L199.566 28.7658L200.743 28.5967L202.088 28.4275L204.61 28.089L205.787 27.9198L207.132 27.7506L209.654 27.4121L210.83 27.2429L212.175 27.0737L213.352 26.9046L214.697 26.7354L215.874 26.566L217.219 26.3969L218.396 26.2277L219.741 26.0585L220.918 25.8894L222.263 25.72L223.44 25.5508L225.962 25.2125L227.307 25.0433L228.484 24.8739L229.829 24.7048L231.174 24.5356L232.351 24.3664L233.528 24.1973L234.873 24.0279L236.049 23.8587L237.394 23.6896L238.739 23.5204L239.916 23.1818H241.261L242.438 22.8435H243.783L246.305 22.3358L247.482 22.1666H248.827L250.004 21.8283L251.349 21.6591L252.526 21.4897L253.871 21.3206L255.048 21.1514L256.393 20.9822L257.57 20.8131L260.091 20.4745L261.436 20.3054L262.613 20.1362L265.135 19.7976L266.48 19.6285L267.657 19.4593L269.002 19.2901L270.179 19.121L271.524 18.9516L272.701 18.7824L274.046 18.6133L275.223 18.4441L276.568 18.2749L277.745 18.1055L279.09 17.9364L280.435 17.7672L281.612 17.598L282.957 17.4289L284.134 17.2595L285.31 17.0903L286.655 16.9212L288 16.752L289.177 16.5828L290.522 16.4134L291.699 16.2443L293.044 16.0751L294.221 15.9059L295.566 15.7368L296.743 15.5674L298.088 15.3982L299.265 15.2291L300.61 15.0599L301.787 14.8907L303.132 14.7214L304.309 14.5522L305.654 14.383L306.831 14.2138L308.176 14.0447L309.352 13.8753L310.698 13.7061L311.874 13.537L313.219 13.3678L314.396 13.1986L315.741 13.0293L316.918 12.8601L318.263 12.6909L319.44 12.5217L320.785 12.3526L321.962 12.1832L323.307 12.014L324.484 11.8449L325.829 11.6757L327.006 11.5065L328.351 11.3372L329.528 11.168L330.873 10.9988L332.218 10.8297L333.395 10.6605L334.74 10.4911L335.916 10.3219L337.261 10.1528L338.438 9.9836L340.96 9.64506L342.305 9.47589L343.482 9.30672L344.827 9.13755L346.004 8.96838L347.349 8.79901L348.526 8.62984L349.871 8.46067L351.048 8.2915L352.393 8.12234L353.57 7.95296L354.915 7.78379L356.092 7.61462L357.437 7.44546L358.613 7.27629L359.958 7.10691L361.135 6.93774L362.48 6.76858L363.657 6.59941L365.002 6.43024L366.179 6.26086L367.524 6.09169L368.701 5.92253L370.046 5.75336L371.223 5.41481H372.568L375.09 4.90731L376.267 4.73814L377.612 4.56877L378.789 4.3996L380.134 4.23043L381.479 4.06126L382.656 3.89209L383.832 3.72272L385.177 3.55355L386.522 3.38438L387.699 3.21521L389.044 3.04604L390.221 2.87667L391.566 2.7075L392.743 2.53833L394.088 2.36916L395.265 2.19999L396.61 2.03062L397.787 1.86145L400.309 1.52311L401.654 1.35395L402.831 1.18457H402.999H404.176Z" fill="#7D8082" fill-opacity="0.67"/>
<path fill-rule="evenodd" clip-rule="evenodd" d="M484.876 175.133V320.484H0V240.617L1.8494 240.278L3.6988 240.109L5.71634 239.771L7.56568 239.602L9.41508 239.263L11.2645 239.094L13.282 238.755L15.1314 238.586L16.9808 238.248L18.8302 238.079L20.8477 237.74L22.6971 237.571L24.5465 237.233L26.564 237.063L28.4134 236.725L30.2627 236.556L32.1121 236.217L34.1297 236.048L35.9791 235.71L37.8284 235.54L39.6778 235.202L41.6954 234.864L43.5448 234.694L47.2435 234.187L49.261 233.848L51.1104 233.679L52.9598 233.51L54.9773 233.172L56.8267 232.833L58.6761 232.664L60.5255 232.326L62.543 232.156L64.3924 231.818L66.2418 231.649L68.0912 231.31L70.1087 231.141L71.9581 230.803L73.8075 230.634L75.825 230.295L77.6744 230.126L81.3732 229.618L83.3907 229.28L85.2401 229.111L87.0895 228.772L88.9389 228.603L90.9564 228.265L92.8057 228.095L94.6552 227.757L96.5045 227.588L98.522 227.249L100.371 227.08L102.221 226.742L104.238 226.572L106.088 226.234L107.937 226.065L109.787 225.726L111.804 225.388L113.653 225.219L115.503 224.88L117.352 224.711L119.37 224.373L121.219 224.203L123.068 223.865L124.918 223.696L126.935 223.357L128.785 223.188L130.634 222.85L132.652 222.681L134.501 222.342L136.35 222.173L138.2 221.834L140.217 221.665L142.067 221.327L143.916 221.158L145.766 220.819L147.783 220.65L149.632 220.312L151.482 220.142L153.499 219.804L155.349 219.635L157.198 219.296L159.048 219.127L161.065 218.789L162.914 218.619L164.764 218.281L166.613 218.112L168.631 217.773L170.48 217.604L172.329 217.266L174.179 216.927L176.196 216.758L178.046 216.42L179.895 216.251L181.913 215.912L183.762 215.743L185.611 215.405L187.461 215.235L189.478 214.897L191.328 214.728L193.177 214.389L197.044 213.882L198.893 213.713L200.743 213.374L202.592 213.205L206.459 212.697L208.309 212.359L210.326 212.19L212.175 211.851L214.025 211.682L215.874 211.344L217.892 211.174L219.741 210.836L221.591 210.667L223.44 210.328L225.457 210.159L227.307 209.821L229.156 209.651L231.174 209.313L233.023 209.144L234.872 208.805L236.722 208.467L238.739 208.298L240.589 207.959L242.438 207.79L244.288 207.452L246.305 207.282L248.154 206.944L250.004 206.775L251.853 206.436L253.871 206.267L255.72 205.929L257.57 205.76L259.587 205.421L261.436 205.252L263.286 204.913L265.135 204.744L267.153 204.406L269.002 204.237L270.852 203.898L272.701 203.729L274.718 203.391L276.568 203.221L278.417 202.883L280.267 202.714L282.284 202.375L284.133 202.206L285.983 201.868L288 201.698L289.85 201.36L291.699 201.191L293.549 200.852L295.566 200.514L297.415 200.345L299.265 200.176L301.114 199.837L303.132 199.499L304.981 199.33L306.831 198.991L308.848 198.822L310.697 198.484L312.547 198.314L316.414 197.807L318.263 197.468L320.113 197.299L321.962 196.961L323.979 196.792L325.829 196.453L327.678 196.284L331.545 195.776L333.395 195.438L335.244 195.269L337.261 194.93L339.111 194.761L340.96 194.423L342.81 194.253L344.827 193.915L346.676 193.746L348.526 193.407L350.375 193.238L352.393 192.9L354.242 192.73L356.092 192.392L358.109 192.054L359.958 191.884L361.808 191.715L363.657 191.377L365.675 191.038L367.524 190.869L369.374 190.531L371.223 190.361L373.24 190.023L375.09 189.854L376.939 189.515L378.789 189.346L380.806 189.008L382.656 188.839L384.505 188.5L386.522 188.331L388.372 187.992L390.221 187.823L392.071 187.485L394.088 187.316L395.938 186.977L397.787 186.808L399.636 186.47L401.654 186.3L403.503 185.962L407.37 185.454L409.22 185.285L411.069 184.947L412.918 184.777L414.936 184.439L416.785 184.27L418.635 183.931L420.484 183.593L422.501 183.424L424.351 183.085L426.2 182.916L428.05 182.578L431.917 182.07L433.766 181.901L435.783 181.563L437.633 181.393L439.482 181.055L441.332 180.886L443.349 180.547L445.198 180.378L447.048 180.04L448.897 179.871L450.915 179.532L452.764 179.363L454.614 179.024L456.631 178.855L458.48 178.517L460.33 178.348L462.179 178.009L464.197 177.84L466.046 177.502L467.896 177.332L469.745 176.994L471.763 176.825L473.612 176.486L475.461 176.317L477.311 175.979L481.178 175.471L483.027 175.302L483.868 175.133H484.876Z" fill="#7D8082" fill-opacity="0.67"/>
<path fill-rule="evenodd" clip-rule="evenodd" d="M623.749 157.196L643.588 68.1918L663.427 157.196H623.749ZM665.276 1.52307H622.74L556.666 241.97H600.715L613.157 199.329H674.355L686.46 241.97H730.509L665.276 1.52307Z" fill="#7D8082" fill-opacity="0.67"/>
<path fill-rule="evenodd" clip-rule="evenodd" d="M854.082 63.9615H897.29C893.255 15.9058 864.674 0 821.465 0C772.541 0 745.136 23.351 745.136 68.3609C745.136 118.109 773.717 131.645 800.786 135.03C826.173 138.414 859.798 138.414 859.798 166.841C859.798 194.084 847.861 205.082 822.138 205.082C794.901 205.082 786.831 195.099 785.823 176.655H742.614C742.614 215.404 761.612 244.339 821.297 244.339C878.628 244.339 902.67 220.988 902.67 165.318C902.67 117.262 876.274 105.925 848.534 101.526C812.218 95.9421 788.344 98.4803 788.344 68.1917C788.344 45.3484 797.928 37.7339 821.465 37.7339C842.313 37.7339 852.905 43.6563 854.082 63.9615Z" fill="#7D8082" fill-opacity="0.67"/>
<path fill-rule="evenodd" clip-rule="evenodd" d="M981.185 202.883V40.6106H1017.84C1051.13 40.6106 1056 52.4552 1056 75.2986V169.041C1056 191.884 1048.27 202.883 1017.16 202.883H981.185ZM938.649 1.18457V241.97H1017.16C1073.99 241.97 1098.87 220.988 1098.87 171.24V73.0988C1098.87 22.1666 1075 1.18457 1017.16 1.18457H938.649Z" fill="#7D8082" fill-opacity="0.67"/>
<path fill-rule="evenodd" clip-rule="evenodd" d="M578.523 320.315L565.241 302.209L577.514 283.935H572.302L561.542 300.01H559.861V283.935H555.489V320.315H559.861V304.578H561.542L573.143 320.315H578.523Z" fill="#7D8082" fill-opacity="0.67"/>
<path fill-rule="evenodd" clip-rule="evenodd" d="M616.856 301.532L618.705 309.316H610.131L611.98 301.701L614.502 289.857L616.856 301.532ZM626.271 320.315L616.687 284.104H612.148L602.565 320.315H607.272L609.122 313.546H619.882L621.731 320.315H626.271Z" fill="#7D8082" fill-opacity="0.67"/>
<path fill-rule="evenodd" clip-rule="evenodd" d="M658.551 283.935H653.507V320.315H657.878V303.224L657.206 293.241L663.763 313.546H665.948L672.505 293.241L671.833 303.224V320.315H676.372V283.935H671.16L664.94 303.901L658.551 283.935Z" fill="#7D8082" fill-opacity="0.67"/>
<path fill-rule="evenodd" clip-rule="evenodd" d="M710.838 284.104H706.299V320.315H710.838V284.104Z" fill="#7D8082" fill-opacity="0.67"/>
<path fill-rule="evenodd" clip-rule="evenodd" d="M740.765 283.935V320.315H760.099V316.084H745.304V303.055H757.745V298.825H745.304V287.826H759.09V283.935H740.765Z" fill="#7D8082" fill-opacity="0.67"/>
<path fill-rule="evenodd" clip-rule="evenodd" d="M792.716 283.935H788.512V320.315H793.052V306.101L792.716 294.256L804.653 320.315H808.856V283.935H804.316V299.333L804.989 311.685L792.716 283.935Z" fill="#7D8082" fill-opacity="0.67"/>
<path fill-rule="evenodd" clip-rule="evenodd" d="M843.322 284.104H838.782V320.315H843.322V284.104Z" fill="#7D8082" fill-opacity="0.67"/>
<path fill-rule="evenodd" clip-rule="evenodd" d="M884.681 301.532L886.53 309.316H877.956L879.805 301.701L882.159 289.857L884.681 301.532ZM894.096 320.315L884.513 284.104H879.973L870.39 320.315H875.098L876.947 313.546H887.707L889.557 320.315H894.096Z" fill="#7D8082" fill-opacity="0.67"/>
<path fill-rule="evenodd" clip-rule="evenodd" d="M930.915 288.165C934.782 288.334 936.632 288.842 936.632 293.749V296.287C936.632 301.363 934.782 302.548 930.915 302.548H925.704V288.165H930.915ZM941.171 296.287V293.749C941.171 286.473 937.136 283.935 930.915 283.935H921.164V320.315H925.704V306.778H929.739L936.968 320.315H942.18L934.446 306.609C939.322 305.593 941.171 302.209 941.171 296.287Z" fill="#7D8082" fill-opacity="0.67"/>
<path fill-rule="evenodd" clip-rule="evenodd" d="M990.096 292.902C989.76 286.98 986.902 283.596 979.672 283.596C972.107 283.596 969.08 287.149 969.08 293.748C969.08 300.686 973.956 302.717 978.159 303.055C982.53 303.563 986.397 303.563 986.397 309.485C986.397 313.715 985.388 316.084 980.681 316.084H979.672C975.133 316.084 973.788 313.715 973.452 310.669H968.744C969.08 316.761 972.443 320.484 979.84 320.484H980.681C988.078 320.484 991.105 317.1 991.105 309.316C991.105 301.701 986.734 299.671 982.53 299.163C977.991 298.825 973.62 298.825 973.62 293.748C973.62 290.195 974.629 287.826 979.672 287.826C984.212 287.826 985.22 290.026 985.389 292.902H990.096Z" fill="#7D8082" fill-opacity="0.67"/>
<path fill-rule="evenodd" clip-rule="evenodd" d="M1036.33 288.334V284.104H1017V288.334H1024.39V320.315H1028.93V288.334H1036.33Z" fill="#7D8082" fill-opacity="0.67"/>
<path fill-rule="evenodd" clip-rule="evenodd" d="M1071.3 312.869L1068.61 299.333L1065.25 283.935H1060.54L1069.28 320.315H1073.32L1076.34 308.132L1079.2 295.102L1082.06 308.132L1085.09 320.315H1089.12L1097.7 283.935H1093.16L1089.63 299.333L1087.1 312.869L1080.88 285.965H1077.52L1071.3 312.869Z" fill="#7D8082" fill-opacity="0.67"/>
<path fill-rule="evenodd" clip-rule="evenodd" d="M1142.42 308.47C1142.42 314.054 1142.08 316.422 1135.36 316.422C1128.63 316.422 1128.13 314.054 1128.13 308.47V295.61C1128.13 289.857 1128.63 287.488 1135.36 287.488C1142.08 287.488 1142.42 289.857 1142.42 295.61V308.47ZM1146.96 295.61C1146.96 287.657 1145.28 283.427 1135.36 283.427C1125.44 283.427 1123.59 287.657 1123.59 295.61V308.3C1123.59 316.253 1125.44 320.653 1135.36 320.653C1145.28 320.653 1146.96 316.253 1146.96 308.3V295.61Z" fill="#7D8082" fill-opacity="0.67"/>
<path fill-rule="evenodd" clip-rule="evenodd" d="M573.983 364.817C573.983 370.57 573.647 372.77 566.922 372.77C560.197 372.77 559.693 370.57 559.693 364.817V352.126C559.693 346.373 560.197 344.004 566.922 344.004C573.647 344.004 573.983 346.373 573.983 352.126V364.817ZM578.523 352.126C578.523 344.173 576.673 339.943 566.922 339.943C557.003 339.943 555.153 344.173 555.153 352.126V364.817C555.153 372.77 557.003 377 566.922 377C576.673 377 578.523 372.77 578.523 364.817V352.126Z" fill="#7D8082" fill-opacity="0.67"/>
<path fill-rule="evenodd" clip-rule="evenodd" d="M628.288 349.419C627.952 343.327 625.094 340.112 617.864 340.112C610.299 340.112 607.272 343.497 607.272 350.265C607.272 357.203 612.148 359.233 616.351 359.571C620.891 359.91 624.757 360.079 624.757 366.002C624.757 370.232 623.749 372.431 618.873 372.431H618.032C613.325 372.431 611.98 370.063 611.812 367.017H606.936C607.272 373.278 610.635 376.831 618.032 376.831H618.873C626.271 376.831 629.297 373.447 629.297 365.663C629.297 358.218 624.926 356.018 620.89 355.68C616.351 355.172 611.98 355.172 611.98 350.265C611.98 346.542 612.989 344.343 617.864 344.343C622.404 344.343 623.412 346.373 623.749 349.419H628.288Z" fill="#7D8082" fill-opacity="0.67"/>
<path fill-rule="evenodd" clip-rule="evenodd" d="M676.54 364.817C676.54 370.57 676.036 372.77 669.311 372.77C662.586 372.77 662.081 370.57 662.081 364.817V352.126C662.081 346.373 662.586 344.004 669.311 344.004C676.036 344.004 676.54 346.373 676.54 352.126V364.817ZM680.912 352.126C680.912 344.173 679.23 339.943 669.311 339.943C659.391 339.943 657.542 344.173 657.542 352.126V364.817C657.542 372.77 659.391 377 669.311 377C679.23 377 680.912 372.77 680.912 364.817V352.126Z" fill="#7D8082" fill-opacity="0.67"/>
<path fill-rule="evenodd" clip-rule="evenodd" d="M719.244 344.511C722.102 344.511 724.456 346.203 724.456 349.757C724.456 352.295 722.943 355.172 718.74 355.172H714.537V344.511H719.244ZM714.705 372.431V359.571H721.094C725.297 359.571 727.819 361.094 727.819 365.663C727.819 369.893 726.306 372.431 720.926 372.431H714.705ZM710.166 376.661H720.758C728.155 376.661 732.358 373.277 732.358 365.663C732.358 360.925 730.341 357.71 726.306 356.525C728.155 354.664 728.996 352.633 728.996 349.757C728.996 344.004 725.633 340.281 719.244 340.281H710.166V376.661Z" fill="#7D8082" fill-opacity="0.67"/>
<path fill-rule="evenodd" clip-rule="evenodd" d="M779.266 364.817C779.266 370.57 778.761 372.77 772.036 372.77C765.311 372.77 764.807 370.57 764.807 364.817V352.126C764.807 346.373 765.311 344.004 772.036 344.004C778.761 344.004 779.266 346.373 779.266 352.126V364.817ZM783.637 352.126C783.637 344.173 781.956 339.943 772.036 339.943C762.117 339.943 760.267 344.173 760.267 352.126V364.817C760.267 372.77 762.117 377 772.036 377C781.956 377 783.637 372.77 783.637 364.817V352.126Z" fill="#7D8082" fill-opacity="0.67"/>
<path fill-rule="evenodd" clip-rule="evenodd" d="M820.12 369.216L817.598 355.679L814.068 340.45H809.528L818.103 376.661H822.138L825.164 364.478L828.022 351.449L830.88 364.478L833.907 376.661H838.11L846.684 340.45H841.977L838.614 355.679L835.924 369.216L829.872 342.312H826.341L820.12 369.216Z" fill="#7D8082" fill-opacity="0.67"/>
<path fill-rule="evenodd" clip-rule="evenodd" d="M878.46 340.45H873.921V376.661H878.46V340.45Z" fill="#7D8082" fill-opacity="0.67"/>
<path fill-rule="evenodd" clip-rule="evenodd" d="M930.747 350.603C930.579 343.666 928.898 340.112 919.483 340.112C909.9 340.112 908.051 344.342 908.051 352.295V364.648C908.051 372.6 908.891 377 919.483 377C930.075 377 930.747 372.6 930.747 365.663H926.544C926.544 371.247 925.536 372.6 919.483 372.6C913.431 372.6 912.422 370.401 912.422 364.648V352.295C912.422 346.542 913.262 344.343 919.483 344.343C925.536 344.343 926.376 346.204 926.376 350.603H930.747Z" fill="#7D8082" fill-opacity="0.67"/>
<path fill-rule="evenodd" clip-rule="evenodd" d="M959.497 340.45V376.661H978.832V372.431H964.036V359.402H976.478V355.172H964.036V344.342H977.655V340.45H959.497Z" fill="#7D8082" fill-opacity="0.67"/>
</svg>
