<svg version="1" xmlns="http://www.w3.org/2000/svg" width="1016" height="1016" viewBox="0 0 762.000000 762.000000"><path d="M623.7 132.7c-.1.1-2.3.4-4.9.7-2.6.3-5.8.8-7 1-1.3.3-4.5.8-7.3 1.1-2.7.3-6.3.8-8 1-1.6.3-6.8.9-11.5 1.5s-9.6 1.3-11 1.5c-1.4.2-5 .7-8 1-3 .3-6.6.8-8 1-6.8 1-11.4 1.7-21.9 3-2.3.3-5.5.7-7 .9-1.4.3-5.1.8-8.1 1.1-3 .3-6.2.8-7 1-.8.2-4.2.6-7.5 1-3.3.3-6.7.8-7.5 1-.8.2-4 .6-7.1 1-3.1.3-6.5.7-7.5.9-1.1.2-4.6.7-7.9 1.1-3.2.3-6.2.8-6.5 1-.3.2-3.4.6-7 1s-7.4.9-8.5 1.1c-1.1.2-4 .6-6.5.9-7.2.8-14.3 1.8-22 3-1.4.2-5.2.7-8.5 1.1-3.3.3-6.7.8-7.5.9-.9.2-4.3.6-7.5 1-3.3.4-6.8.9-7.9 1.1-1 .2-4.4.6-7.5 1-3.1.3-6.4.8-7.5 1-1 .2-4.4.6-7.5.9-3.1.3-6.6.8-7.9 1.1-1.2.2-4.4.7-7 1-2.6.3-5.8.7-7.2.9-1.4.2-4.8.7-7.6 1-2.8.3-6.1.8-7.5 1-1.3.3-4.4.7-6.9 1-7.6.9-23.1 3-30 4-1.4.3-5 .7-8 1-3 .3-8.2 1-11.5 1.5-3.3.5-7.6 1.2-9.5 1.4-1.9.3-6.9 1-11 1.6-4.1.6-9.4 1.3-11.8 1.5-2.3.3-5.5.7-7 1-1.5.2-4.7.7-7.1 1-2.3.3-5.5.7-7 .9-1.4.3-5 .8-8 1.1-3 .4-6.1.8-7 1-.9.1-4.3.6-7.6.9-3.3.4-7.1.9-8.5 1.1-1.4.2-4.5.6-7 1-4.8.6-10.9 1.4-15 2-1.4.2-4.7.7-7.5 1-2.7.3-6.1.8-7.5 1-1.4.3-5.2.7-8.5 1.1-3.3.3-6.2.8-6.5.9-.3.2-3.7.6-7.5 1-3.9.4-7.2.9-7.4 1.1-.4.4-.4 63.4.1 63.9.2.2 9.1.6 19.8 1 10.7.3 23.8.8 29 1 5.2.2 16.7.6 25.5.9 8.8.4 21.6.9 28.5 1.2 6.9.3 17.5.7 23.5.9 6.1.2 17.8.6 26 1 16 .6 30.4 1.1 53 2 7.7.3 19 .7 25 1 17.7.7 36.8 1.5 54.5 2 9.1.3 21.7.8 28 1 6.3.3 18.3.8 26.5 1.1 8.3.3 18.4.7 22.5.9 4.1.2 16.1.6 26.5 1 10.5.4 23.3.8 28.5 1 5.2.3 17.2.7 26.5 1 9.4.3 21.3.8 26.5 1 5.2.2 15.9.7 23.8 1l14.2.6V131.9l-5.6.3c-3.1.2-5.6.4-5.7.5zM77 380.3v90.9l4.3-.7c2.3-.4 5.3-.8 6.7-1 1.4-.2 4.3-.6 6.5-.9 2.2-.3 6-.8 8.5-1.1 2.5-.4 5.6-.8 7-1 1.4-.2 4.4-.6 6.8-.9 2.3-.3 6.1-.9 8.5-1.2 2.3-.3 5.3-.7 6.7-.9 1.4-.2 5-.7 8-1 3-.4 6.4-.8 7.5-1 3.5-.5 11.8-1.6 16-2.1 2.2-.3 5.1-.7 6.5-.9 2.9-.5 18.2-2.5 22.5-3.1 5.8-.7 13-1.6 14.5-1.9.8-.1 4-.6 7-1 8-1 10-1.3 15-2.1 2.5-.4 5.6-.8 7-.9 4.6-.5 14.3-1.7 16.4-2.1 1.2-.2 4.6-.7 7.5-1 3-.3 5.8-.7 6.1-.9.3-.2 3.7-.6 7.5-1 3.9-.4 7.2-.9 7.5-1 .3-.2 3.4-.6 7-1 6.6-.6 8-.8 16-2 7.5-1.1 9.3-1.4 14-2 2.5-.3 5.6-.8 7-1 1.4-.2 5-.6 8-1s6.7-.8 8.1-1.1c1.5-.2 4.7-.6 7-.9 2.4-.3 5.5-.7 6.9-1 1.4-.2 5-.7 8-1.1 3-.4 6.2-.8 7-.9.8-.1 4.4-.5 8-1 3.6-.4 7.4-.9 8.5-1.1 1.1-.2 4-.6 6.5-.9 2.5-.3 6.3-.8 8.5-1.2 2.2-.3 5.1-.7 6.5-.8 1.4-.2 4.1-.6 6-.9 1.9-.3 5.8-.8 8.5-1.1 2.8-.3 6.1-.8 7.5-1 1.4-.2 6.3-.9 11-1.5s9.6-1.3 11-1.5c1.4-.2 4.5-.6 7-1 10.1-1.3 13.6-1.8 15.1-2 .9-.2 6-.9 11.4-1.5s10.6-1.3 11.5-1.5c1-.2 4-.6 6.7-1 9.3-1.2 11.8-1.6 14.3-1.9 1.4-.3 5.2-.7 8.5-1.1 3.2-.4 6.8-.9 7.8-1.1 1.1-.2 4.5-.6 7.6-.9 3.1-.3 6.6-.8 7.8-1 1.2-.3 4.1-.7 6.5-1 2.4-.3 7.5-.9 11.3-1.5 3.9-.5 9-1.2 11.5-1.5 2.5-.4 5.6-.8 7-1 1.4-.2 4.6-.6 7.2-.9 2.6-.3 6.2-.8 8-1.1 1.8-.2 6.9-.9 11.3-1.5s9.1-1.3 10.5-1.5c1.4-.2 4.8-.7 7.5-1 2.8-.4 6.1-.8 7.5-1 1.4-.2 4.5-.6 7-1 2.5-.3 7.7-1 11.5-1.5 3.9-.6 8.8-1.2 11-1.5 8.3-1 13.1-1.6 15-2 2-.4 2.1-1.1 2-38.5 0-20.9-.2-38.1-.5-38.1-.9-.2-10-.7-29-1.3-10.2-.4-23.7-.9-30-1.2-21.7-1-44.2-1.8-75.5-2.9-6.6-.2-17.8-.6-25-.9-7.1-.3-19.7-.8-28-1.1-8.2-.4-19.3-.8-24.5-1-5.2-.2-16.9-.7-26-1-9.1-.3-21.4-.8-27.5-1-6-.2-18.4-.7-27.5-1-9.1-.3-21-.7-26.5-1-5.5-.3-17.2-.7-26-1-8.8-.3-20.5-.7-26-1-5.5-.2-17.2-.7-26-1-18.6-.6-38-1.4-51.6-2-11.4-.5-41.3-1.6-81.4-3-8.2-.3-19.7-.7-25.5-1-21.2-.9-40.6-1.7-45.7-1.9l-5.3-.2v90.9zM750 404.2c-2.5.4-6.3 1-8.5 1.3-2.2.3-5.6.7-7.5 1-1.9.3-5.7.7-8.5 1-2.7.3-6.1.8-7.5 1-1.4.2-4.5.6-7 1-4.7.6-10.8 1.4-15 2-1.4.2-4.7.7-7.5 1-2.7.3-6.1.7-7.5 1-3.9.6-10.1 1.4-15 2-2.5.3-6.3.8-8.5 1.2-7.1 1-7.9 1.1-13.1 1.7-2.8.4-5.9.8-7 1-1 .2-4.4.7-7.4 1.1-3 .3-6.6.8-8 1-1.4.2-5 .7-8 1-3 .3-8.2 1-11.5 1.5-7.3 1.1-12.7 1.8-18 2.5-4.7.6-25.3 3.3-31 4.1-2.2.3-5.6.8-7.5 1.1-1.9.2-4.6.5-6 .7-13.5 1.9-19.2 2.6-23.5 3.2-2.7.3-5.7.8-6.5.9-.9.2-4.3.6-7.5 1-6.6.7-10.6 1.3-14.5 2-1.4.2-5.2.7-8.5 1.1-3.3.3-6.9.8-8 .9-9.8 1.4-25.5 3.6-27.5 3.9-1.4.3-5 .7-8 1.1-3 .4-6.4.8-7.5.9-1.1.2-4.5.6-7.5 1s-6.2.9-7 1.1c-.8.2-4.2.7-7.5 1-3.3.3-7.1.7-8.4 1-1.3.2-4.9.7-8 1-3.1.4-6.3.8-7.1 1-.8.3-3.7.7-6.5 1-2.7.3-6.5.7-8.2 1-5.3.8-9.5 1.4-14.8 2.1-2.7.3-5.7.7-6.5.9-1.8.3-12.7 1.7-15.5 2-5.9.7-13.2 1.7-15 2-1.1.3-4 .7-6.5.9-2.5.3-6.1.7-8 1-1.9.3-8.9 1.2-15.5 2.1-6.6.9-13.1 1.8-14.5 2-1.4.2-4.9.7-7.9 1-3 .4-6.3.9-7.5 1.1-1.2.2-4.3.6-7.1.9-2.7.3-7.9 1.1-11.5 1.6-3.6.6-8.5 1.2-11 1.5-2.5.2-5.5.6-6.6.8-1.2.3-4.8.8-8 1.1-3.3.4-6.8.9-7.9 1.1-1.1.2-4.5.6-7.5.9-3 .3-8 1-11 1.5s-7.9 1.1-10.9 1.4c-2.9.3-7.9 1-11 1.5-3.1.5-7.8 1.3-10.6 1.6-2.7.3-7.9 1-11.5 1.5-3.6.5-8.7 1.2-11.5 1.5-2.7.4-6 .8-7.1 1-1.2.2-4.8.7-8 1-3.3.4-6.7.9-7.8 1.1-1 .2-4.4.6-7.5 1-3.1.3-6.5.8-7.6 1-1.1.3-4.2.7-7 .9-2.7.3-6.1.7-7.5 1-1.4.2-4.9.7-7.9 1-3 .4-6.3.9-7.5 1.1-2 .4-5.7.9-13.3 1.9-2.1.3-6.9.9-10.8 1.4-3.8.6-9.9 1.3-13.5 1.7-3.6.3-6.7.8-7 .9-.3.2-3.2.7-6.5 1-3.2.4-6.6.9-7.4 1-.9.2-2.2.4-2.8.4-1 .1-1.3 13.3-1.3 62.6V630h761.7V402.9l-3.6.3c-2 .1-5.6.6-8.1 1z"/></svg>